<svg xmlns="http://www.w3.org/2000/svg" viewBox="0 0 171 196" width="171" height="196">
	<defs>
		<clipPath clipPathUnits="userSpaceOnUse" id="cp1">
			<path d="M0 0L171 0L171 196L0 196Z" />
		</clipPath>
	</defs>
	<style>
		tspan { white-space:pre }
		.shp0 { fill: #2e3030 } 
	</style>
	<g id="Page 1" clip-path="url(#cp1)">
		<path id="Path 1" fill-rule="evenodd" class="shp0" d="M7.5 157.26L8.48 157.36L9.44 157.56L10.22 157.84L10.91 158.33L11.49 158.92L11.87 159.59L12.07 160.37L12.16 161.24L12.07 161.63L11.97 162.12L11.87 162.5L11.68 162.99L11.39 163.28L11.1 163.67L10.81 163.96L10.41 164.15L11.1 164.54L11.49 164.84L11.87 165.22L12.16 165.62L12.45 166.19L12.55 166.78L12.65 167.55L12.55 168.62L12.26 169.59L11.87 170.37L11.29 171.05L10.51 171.63L9.64 172.02L8.57 172.21L7.41 172.31L1.1 172.31L1.1 157.26L7.5 157.26ZM3.82 163.09L7.41 163.09L7.89 162.99L8.28 162.89L8.67 162.7L8.86 162.5L9.06 162.31L9.15 162.02L9.25 161.44L9.15 161.05L9.06 160.75L8.97 160.46L8.76 160.28L8.48 160.08L8.09 159.98L7.22 159.88L3.82 159.88L3.82 163.09ZM3.82 169.78L7.89 169.78L8.38 169.69L8.76 169.49L9.06 169.2L9.35 168.91L9.54 168.53L9.64 168.14L9.73 167.65L9.64 167.16L9.54 166.68L9.35 166.29L9.15 166L8.76 165.8L8.38 165.62L7.98 165.52L3.82 165.52L3.82 169.78Z" />
		<path id="Path 2" fill-rule="evenodd" class="shp0" d="M7.5 157.25L8.48 157.34L9.46 157.54L10.23 157.82L10.91 158.31L11.5 158.9L11.9 159.59L12.09 160.36L12.18 161.24L12.09 161.63L11.98 162.12L11.9 162.51L11.69 163L11.69 163L11.4 163.29L11.11 163.68L10.82 163.97L10.81 163.97L10.46 164.15L11.11 164.53L11.49 164.82L11.5 164.82L11.89 165.21L12.18 165.6L12.47 166.19L12.47 166.19L12.57 166.77L12.66 167.55L12.57 168.62L12.28 169.6L11.89 170.37L11.3 171.06L10.52 171.64L9.65 172.03L8.57 172.23L7.41 172.32L1.08 172.32L1.08 157.25L7.5 157.25ZM1.1 172.3L7.41 172.3L8.57 172.21L9.64 172.02L10.51 171.63L11.29 171.04L11.87 170.37L12.26 169.59L12.56 168.62L12.65 167.55L12.56 166.78L12.45 166.19L12.16 165.62L11.87 165.22L11.48 164.83L11.1 164.54L10.41 164.15L10.81 163.96L11.1 163.67L11.4 163.28L11.68 162.99L11.87 162.5L11.97 162.12L12.07 161.63L12.16 161.24L12.07 160.37L11.87 159.59L11.48 158.91L10.91 158.33L10.22 157.84L9.44 157.56L8.48 157.37L7.5 157.26L1.1 157.26L1.1 172.3ZM7.21 159.88L8.09 159.98L8.48 160.08L8.76 160.27L8.97 160.46L9.05 160.75L9.16 161.05L9.25 161.44L9.16 162.02L9.05 162.31L8.86 162.5L8.67 162.7L8.28 162.89L7.89 162.99L7.41 163.09L3.82 163.09L3.82 159.88L7.21 159.88ZM3.83 163.07L7.41 163.07L7.89 162.97L8.27 162.88L8.66 162.68L8.85 162.49L9.04 162.3L9.13 162.02L9.23 161.44L9.13 161.05L9.04 160.76L8.94 160.48L8.75 160.28L8.46 160.09L8.08 160L7.21 159.9L3.83 159.9L3.83 163.07ZM8 165.51L8.38 165.62L8.76 165.81L9.16 166L9.35 166.29L9.54 166.68L9.64 167.16L9.73 167.65L9.64 168.14L9.54 168.53L9.35 168.91L9.05 169.2L8.76 169.5L8.38 169.69L7.89 169.78L3.82 169.78L3.82 165.51L8 165.51ZM3.83 169.77L7.89 169.77L8.37 169.66L8.75 169.47L9.04 169.19L9.34 168.9L9.52 168.51L9.63 168.13L9.72 167.65L9.63 167.17L9.52 166.68L9.34 166.3L9.15 166.01L8.76 165.82L8.37 165.63L7.98 165.53L3.83 165.53L3.83 169.77Z" />
		<path id="Path 3" fill-rule="evenodd" class="shp0" d="M7.5 157.27L8.48 157.37L9.44 157.56L10.22 157.85L10.91 158.33L11.49 158.91L11.87 159.59L12.07 160.37L12.16 161.24L12.07 161.63L11.97 162.12L11.87 162.5L11.68 162.99L11.39 163.28L11.1 163.67L10.81 163.96L10.41 164.15L11.1 164.55L11.49 164.84L11.87 165.22L12.16 165.61L12.45 166.19L12.55 166.77L12.65 167.56L12.55 168.62L12.26 169.59L11.87 170.37L11.29 171.05L10.51 171.63L9.64 172.02L8.57 172.21L7.41 172.31L1.1 172.31L1.1 157.27L7.5 157.27ZM1.11 172.29L7.41 172.29L8.57 172.19L9.64 172L10.5 171.62L11.28 171.03L11.85 170.36L12.25 169.58L12.54 168.62L12.63 167.56L12.54 166.78L12.44 166.2L12.15 165.62L11.85 165.23L11.47 164.85L11.09 164.56L10.38 164.15L10.4 164.14L10.8 163.95L11.09 163.65L11.37 163.27L11.66 162.98L11.85 162.5L11.95 162.11L12.05 161.63L12.15 161.24L12.05 160.37L11.85 159.6L11.47 158.92L10.9 158.34L10.21 157.86L9.44 157.57L8.48 157.38L7.5 157.28L1.11 157.28L1.11 172.29ZM7.22 159.87L8.09 159.96L8.49 160.06L8.78 160.25L8.78 160.27L8.97 160.46L9.07 160.75L9.18 161.05L9.27 161.44L9.18 162.02L9.07 162.32L8.87 162.51L8.68 162.71L8.29 162.91L8.28 162.91L7.9 163L7.41 163.11L3.8 163.11L3.8 159.87L7.22 159.87ZM3.82 163.09L7.41 163.09L7.89 162.99L8.28 162.89L8.67 162.71L8.86 162.5L9.06 162.31L9.15 162.02L9.25 161.44L9.15 161.05L9.06 160.75L8.97 160.46L8.76 160.28L8.48 160.07L8.09 159.98L7.22 159.89L3.82 159.89L3.82 163.09ZM8 165.5L8.38 165.59L8.39 165.59L8.77 165.79L9.17 165.99L9.17 165.99L9.36 166.28L9.56 166.68L9.66 167.16L9.75 167.65L9.66 168.14L9.56 168.53L9.36 168.92L9.07 169.21L8.77 169.5L8.38 169.7L7.9 169.81L3.8 169.81L3.8 165.5L8 165.5ZM3.82 169.78L7.89 169.78L8.38 169.69L8.76 169.49L9.06 169.2L9.35 168.91L9.54 168.52L9.64 168.14L9.73 167.65L9.64 167.17L9.54 166.68L9.35 166.29L9.15 166L8.76 165.81L8.38 165.61L7.98 165.51L3.82 165.51L3.82 169.78ZM18.09 172.5L17.5 172.4L17.02 172.3L16.53 172.01L16.15 171.82L15.85 171.43L15.28 170.75L14.88 169.98L14.69 169.1L14.59 168.33L14.59 161.34L17.31 161.34L17.31 168.03L17.41 168.62L17.6 169L17.8 169.4L18.09 169.69L18.38 169.88L18.87 170.08L19.74 170.08L20.23 169.88L20.52 169.69L20.81 169.4L21.11 169L21.19 168.62L21.29 168.03L21.39 167.45L21.39 161.34L24 161.34L24 172.3L21.39 172.3L21.39 171.43L20.81 171.91L20.23 172.3L19.44 172.5L18.68 172.6L18.09 172.5Z" />
		<path id="Path 4" fill-rule="evenodd" class="shp0" d="M24.03 172.33L21.37 172.33L21.37 171.47L20.82 171.93L20.23 172.33L19.45 172.52L18.68 172.61L18.66 172.61L18.09 172.52L17.5 172.42L17.01 172.33L16.52 172.03L16.14 171.84L16.13 171.83L15.84 171.45L15.25 170.76L14.86 169.99L14.68 169.1L14.57 168.33L14.57 161.32L17.32 161.32L17.32 168.03L17.43 168.61L17.62 169L17.81 169.38L18.1 169.67L18.39 169.86L18.87 170.05L19.74 170.05L20.22 169.86L20.5 169.67L20.79 169.38L21.08 169L21.18 168.61L21.28 168.03L21.37 167.45L21.37 161.32L24.03 161.32L24.03 172.33ZM18.38 169.88L18.09 169.69L17.79 169.39L17.6 169L17.41 168.62L17.31 168.03L17.31 161.34L14.59 161.34L14.59 168.33L14.69 169.1L14.88 169.97L15.28 170.75L15.85 171.44L16.15 171.82L16.53 172.01L17.02 172.31L17.5 172.4L18.09 172.5L18.66 172.6L19.45 172.5L20.22 172.31L20.81 171.92L21.4 171.44L21.4 172.31L24.02 172.31L24.02 161.34L21.4 161.34L21.4 167.46L21.3 168.03L21.19 168.62L21.1 169L20.81 169.39L20.51 169.69L20.22 169.88L19.74 170.08L18.87 170.08L18.38 169.88Z" />
		<path id="Path 5" fill-rule="evenodd" class="shp0" d="M24 172.31L21.38 172.31L21.38 171.44L20.81 171.92L20.22 172.31L19.44 172.5L18.68 172.6L18.09 172.5L17.5 172.4L17.02 172.31L16.53 172.01L16.14 171.82L15.85 171.44L15.28 170.75L14.88 169.97L14.69 169.1L14.59 168.33L14.59 161.34L17.31 161.34L17.31 168.03L17.41 168.62L17.6 169.01L17.8 169.39L18.09 169.69L18.38 169.88L18.87 170.08L19.74 170.08L20.22 169.88L20.52 169.69L20.81 169.39L21.1 169.01L21.2 168.62L21.29 168.03L21.38 167.46L21.38 161.34L24 161.34L24 172.31ZM18.37 169.9L18.08 169.7L17.78 169.4L17.59 169.01L17.4 168.62L17.29 168.04L17.29 161.36L14.62 161.36L14.62 168.33L14.71 169.1L14.9 169.97L15.29 170.75L15.87 171.42L16.16 171.81L16.54 172L17.02 172.29L17.5 172.38L18.09 172.48L18.68 172.58L19.44 172.48L20.21 172.29L20.8 171.91L21.4 171.39L21.4 172.29L23.99 172.29L23.99 161.36L21.4 161.36L21.4 167.46L21.31 168.04L21.21 168.62L21.12 169.01L21.11 169.01L20.82 169.4L20.53 169.7L20.23 169.9L19.74 170.09L18.86 170.09L18.37 169.9ZM59.75 164.64L59.7 164.55L59.68 164.51L59.75 164.64L59.82 164.84L59.75 164.64ZM58.97 163.77L59.18 163.91L59.09 163.85L58.97 163.77L58.68 163.71L58.97 163.77ZM57.13 163.77L57.03 163.83L57.13 163.77L57.3 163.73L57.13 163.77L57.13 163.77ZM56.54 164.25L56.25 164.64L56.24 164.66L56.07 165.1L56.25 164.64L56.54 164.25L56.56 164.23L56.54 164.25ZM53.23 161.34L55.95 161.34L55.95 161.34L53.23 161.34L53.23 172.31L53.23 172.31L53.23 161.34ZM56.54 161.72L55.96 162.3L55.96 162.31L56.54 161.73L57.06 161.5L56.54 161.72ZM60.1 161.31L59.99 161.27L60.02 161.28L60.1 161.31ZM59.64 161.14L57.9 161.14L57.7 161.23L57.9 161.14L59.64 161.14L59.64 161.14ZM62.45 163.92L62.18 163.09L61.69 162.41L61.69 162.41L61.79 162.56L62.18 163.09L62.45 163.9L62.45 163.92ZM62.76 166.1L62.74 165.92L62.76 166.1L62.76 166.1ZM60.43 161.42L61.11 161.81L61.7 162.39L62.19 163.08L62.49 163.95L62.68 164.92L62.77 166.1L62.77 172.33L60.02 172.33L60.02 165.62L59.93 165.12L59.73 164.64L59.53 164.26L59.25 163.97L58.96 163.78L58.48 163.69L58.1 163.59L57.62 163.69L57.13 163.78L56.85 163.97L56.56 164.26L56.27 164.64L56.07 165.12L55.97 165.62L55.97 172.33L53.22 172.33L53.22 161.32L55.97 161.32L55.97 162.27L56.53 161.71L57.21 161.42L57.9 161.13L59.65 161.13L60.43 161.42ZM26.54 161.34L29.25 161.34L29.25 172.3L26.54 172.3L26.54 161.34ZM18.68 172.6L18.68 172.58L18.68 172.6Z" />
		<path id="Path 6" fill-rule="evenodd" class="shp0" d="M29.27 161.32L29.27 172.33L26.52 172.33L26.52 161.32L29.27 161.32ZM26.53 172.3L29.25 172.3L29.25 161.34L26.53 161.34L26.53 172.3ZM29.25 161.34L29.24 161.34L29.25 161.34Z" />
		<path id="Path 7" fill-rule="evenodd" class="shp0" d="M26.54 161.34L29.25 161.34L29.25 172.3L26.54 172.3L26.54 161.34ZM26.55 172.29L29.24 172.29L29.24 161.35L26.55 161.35L26.55 172.29ZM34.3 156.78L34.3 172.31L31.58 172.31L31.58 158.14L34.3 156.78Z" />
		<path id="Path 8" fill-rule="evenodd" class="shp0" d="M34.32 156.75L34.32 172.32L31.56 172.32L31.56 158.12L34.32 156.75ZM31.59 172.3L34.3 172.3L34.3 156.78L31.59 158.14L31.59 172.3Z" />
		<path id="Path 9" fill-rule="evenodd" class="shp0" d="M34.3 156.78L34.3 172.31L31.58 172.31L31.58 158.14L34.3 156.78ZM31.61 172.29L34.29 172.29L34.29 156.81L31.61 158.15L31.61 172.29ZM39.55 172.5L38.67 172.21L37.99 171.72L37.31 171.05L36.83 170.17L36.54 169.2L36.34 168.03L36.24 166.78L36.34 165.51L36.54 164.35L36.92 163.47L37.42 162.6L37.99 162.02L38.77 161.53L39.55 161.24L40.52 161.15L41.2 161.15L41.87 161.34L42.46 161.63L42.95 162.12L42.95 158.14L45.67 156.78L45.67 172.31L42.95 172.31L42.95 171.53L42.36 171.91L41.79 172.31L41.2 172.5L40.52 172.6L39.55 172.5ZM40.71 163.66L39.94 163.87L39.64 164.15L39.36 164.54L39.15 165.12L39.07 165.8L38.97 166.68L39.07 167.65L39.15 168.42L39.36 169L39.64 169.39L40.03 169.69L40.33 169.88L40.71 170.08L41.1 170.08L41.69 169.97L42.27 169.69L42.66 169.39L42.95 169L42.95 164.64L42.66 164.35L42.27 163.96L41.69 163.66L41.01 163.57L40.71 163.66ZM31.58 172.31L31.61 172.31L31.58 172.31Z" />
		<path id="Path 10" fill-rule="evenodd" class="shp0" d="M45.69 172.32L42.93 172.32L42.93 171.56L42.37 171.93L41.79 172.32L41.79 172.32L41.2 172.52L40.52 172.61L39.55 172.52L38.66 172.22L37.98 171.73L37.3 171.06L36.81 170.18L36.52 169.2L36.33 168.04L36.22 166.78L36.33 165.51L36.52 164.35L36.9 163.47L37.39 162.59L37.98 162L38.76 161.52L39.55 161.22L40.52 161.13L41.2 161.13L41.88 161.32L42.47 161.62L42.93 162.07L42.93 158.12L45.69 156.75L45.69 172.32ZM42.46 161.63L41.88 161.34L41.2 161.15L40.52 161.15L39.55 161.24L38.77 161.53L37.99 162.01L37.42 162.6L36.93 163.47L36.54 164.35L36.35 165.51L36.24 166.78L36.35 168.03L36.54 169.2L36.83 170.17L37.31 171.04L37.99 171.72L38.67 172.21L39.55 172.5L40.52 172.6L41.2 172.5L41.79 172.31L42.36 171.91L42.95 171.53L42.95 172.31L45.67 172.31L45.67 156.78L42.95 158.14L42.95 162.11L42.46 161.63ZM41.01 163.57L41.68 163.67L42.27 163.96L42.66 164.35L42.95 164.64L42.95 169L42.66 169.39L42.27 169.69L41.68 169.97L41.1 170.07L40.71 170.07L40.33 169.88L40.04 169.69L39.64 169.39L39.36 169L39.16 168.42L39.07 167.65L38.96 166.68L39.07 165.8L39.16 165.12L39.36 164.54L39.64 164.15L39.94 163.86L40.33 163.77L40.71 163.67L41.01 163.57ZM41.1 170.05L41.68 169.96L42.26 169.67L42.65 169.38L42.93 169L42.93 164.64L42.65 164.36L42.26 163.97L41.68 163.68L41.01 163.59L40.72 163.68L40.33 163.78L39.95 163.88L39.66 164.17L39.36 164.55L39.18 165.12L39.08 165.8L38.98 166.68L39.08 167.65L39.18 168.42L39.36 168.99L39.66 169.38L40.04 169.67L40.34 169.86L40.72 170.05L41.1 170.05Z" />
		<path id="Path 11" fill-rule="evenodd" class="shp0" d="M45.67 172.3L42.95 172.3L42.95 171.53L42.36 171.92L41.79 172.3L41.2 172.5L40.52 172.6L39.55 172.5L38.67 172.2L37.99 171.72L37.31 171.04L36.83 170.17L36.54 169.2L36.34 168.03L36.24 166.78L36.34 165.51L36.54 164.35L36.92 163.47L37.42 162.6L37.99 162.02L38.77 161.53L39.55 161.24L40.52 161.14L41.2 161.14L41.87 161.34L42.46 161.63L42.95 162.12L42.95 158.14L45.67 156.78L45.67 172.3ZM42.96 162.16L42.45 161.64L41.87 161.36L41.19 161.17L40.52 161.17L39.55 161.26L38.78 161.55L38 162.03L37.43 162.61L36.95 163.49L36.55 164.35L36.36 165.51L36.26 166.78L36.36 168.03L36.55 169.2L36.84 170.17L37.33 171.03L38 171.71L38.68 172.19L39.55 172.49L40.52 172.58L41.19 172.49L41.78 172.29L42.35 171.91L42.96 171.5L42.96 172.29L45.65 172.29L45.65 156.81L42.96 158.15L42.96 162.16ZM41.01 163.56L41.69 163.65L42.28 163.94L42.28 163.95L42.67 164.34L42.96 164.64L42.96 169.02L42.67 169.41L42.28 169.7L41.69 170L41.1 170.09L40.71 170.09L40.32 169.89L40.02 169.7L39.63 169.41L39.34 169.02L39.34 169.01L39.14 168.43L39.14 168.42L39.05 167.65L38.94 166.68L39.05 165.8L39.14 165.12L39.14 165.11L39.34 164.53L39.63 164.14L39.93 163.85L40.33 163.75L40.71 163.65L41.01 163.56ZM41.1 170.07L41.69 169.98L42.27 169.69L42.66 169.4L42.95 169.01L42.95 164.64L42.66 164.35L42.27 163.96L41.69 163.66L41.01 163.57L40.71 163.66L40.33 163.76L39.94 163.86L39.64 164.15L39.36 164.54L39.15 165.12L39.07 165.81L38.97 166.68L39.07 167.65L39.15 168.42L39.36 169.01L39.64 169.4L40.03 169.69L40.33 169.88L40.71 170.07L41.1 170.07ZM101.5 172.5L100.82 172.31L100.23 171.91L99.75 171.53L99.75 172.31L97.04 172.31L97.04 158.43L99.75 157.07L99.75 162.12L100.23 161.72L100.91 161.34L101.5 161.15L102.18 161.15L103.15 161.24L103.93 161.53L104.7 162.02L105.29 162.6L105.77 163.47L106.16 164.35L106.35 165.51L106.45 166.78L106.35 168.03L106.16 169.2L105.86 170.17L105.38 171.05L104.7 171.72L104.03 172.21L103.15 172.5L102.18 172.6L101.5 172.5ZM101.12 163.66L100.53 163.87L100.14 164.25L99.75 164.74L99.75 169L100.04 169.3L100.44 169.69L101.01 169.97L101.3 170.08L101.69 170.08L102.18 169.97L102.57 169.88L102.96 169.59L103.25 169.2L103.44 168.72L103.54 168.13L103.64 167.46L103.73 166.68L103.64 165.9L103.54 165.22L103.34 164.74L103.06 164.25L102.76 163.96L102.38 163.77L101.98 163.66L101.69 163.57L101.12 163.66ZM42.95 162.12L42.96 162.12L42.95 162.12Z" />
		<path id="Path 12" fill-rule="evenodd" class="shp0" d="M99.77 162.08L100.23 161.71L100.92 161.32L101.49 161.13L102.18 161.13L103.15 161.22L103.93 161.52L104.71 162L105.31 162.59L105.79 163.47L106.18 164.34L106.37 165.51L106.47 166.78L106.37 168.04L106.18 169.2L105.89 170.18L105.39 171.06L104.71 171.73L104.03 172.22L103.15 172.52L102.18 172.61L102.17 172.61L101.49 172.52L100.81 172.32L100.23 171.93L100.22 171.93L99.77 171.56L99.77 172.32L97.02 172.32L97.02 158.42L99.77 157.03L99.77 162.08ZM99.75 172.3L99.75 171.53L100.23 171.91L100.82 172.3L101.5 172.5L102.18 172.6L103.15 172.5L104.03 172.21L104.7 171.72L105.38 171.04L105.86 170.17L106.16 169.2L106.35 168.03L106.45 166.78L106.35 165.51L106.16 164.35L105.77 163.47L105.29 162.6L104.7 162.01L103.93 161.53L103.15 161.24L102.18 161.15L101.5 161.15L100.92 161.34L100.23 161.72L99.75 162.11L99.75 157.07L97.04 158.43L97.04 172.3L99.75 172.3ZM101.69 163.57L101.98 163.67L102.38 163.77L102.76 163.96L103.06 164.25L103.35 164.74L103.54 165.22L103.63 165.9L103.73 166.68L103.63 167.45L103.54 168.13L103.44 168.72L103.25 169.2L102.96 169.59L102.57 169.88L102.18 169.97L101.69 170.07L101.3 170.07L101.01 169.97L100.44 169.69L100.04 169.29L99.75 169L99.75 164.74L100.14 164.25L100.53 163.86L101.12 163.67L101.69 163.57ZM101.69 170.05L102.17 169.96L102.56 169.86L102.94 169.57L103.23 169.19L103.42 168.71L103.53 168.13L103.62 167.45L103.72 166.68L103.62 165.9L103.53 165.22L103.33 164.74L103.04 164.26L102.75 163.97L102.37 163.78L101.98 163.68L101.69 163.59L101.12 163.68L100.54 163.88L100.15 164.26L99.77 164.74L99.77 168.99L100.05 169.28L100.45 169.67L101.02 169.96L101.31 170.05L101.69 170.05Z" />
		<path id="Path 13" fill-rule="evenodd" class="shp0" d="M99.75 162.11L100.23 161.73L100.91 161.34L101.5 161.14L102.18 161.14L103.15 161.24L103.93 161.53L104.71 162.02L105.29 162.6L105.77 163.47L106.16 164.35L106.35 165.51L106.46 166.78L106.35 168.03L106.16 169.2L105.87 170.17L105.38 171.04L104.71 171.72L104.03 172.2L103.15 172.5L102.18 172.6L101.5 172.5L100.82 172.3L100.23 171.92L99.75 171.53L99.75 172.3L97.04 172.3L97.04 158.43L99.75 157.07L99.75 162.11ZM99.73 172.29L99.73 171.49L99.76 171.51L100.24 171.9L100.83 172.29L101.5 172.49L102.18 172.58L103.14 172.49L104.02 172.19L104.69 171.71L105.37 171.03L105.85 170.17L106.14 169.2L106.34 168.03L106.44 166.78L106.33 165.51L106.14 164.35L105.75 163.48L105.28 162.61L104.69 162.03L103.92 161.54L103.14 161.26L102.18 161.17L101.5 161.17L100.92 161.36L100.24 161.75L99.73 162.15L99.73 157.09L97.04 158.44L97.04 172.29L99.73 172.29ZM101.69 163.55L101.7 163.56L101.99 163.65L102.38 163.75L102.77 163.94L102.77 163.95L103.07 164.24L103.36 164.73L103.56 165.22L103.65 165.9L103.75 166.68L103.65 167.46L103.56 168.13L103.45 168.72L103.27 169.21L103.26 169.21L102.96 169.6L102.58 169.9L102.18 170L101.69 170.09L101.3 170.09L101.01 170L100.42 169.7L100.41 169.7L100.03 169.31L99.73 169.02L99.73 164.72L100.13 164.24L100.52 163.85L101.11 163.65L101.69 163.56L101.69 163.55ZM101.11 163.67L100.53 163.86L100.14 164.25L99.75 164.73L99.75 169.01L100.04 169.3L100.44 169.69L101.01 169.98L101.31 170.07L101.69 170.07L102.18 169.98L102.57 169.88L102.95 169.59L103.25 169.2L103.44 168.71L103.54 168.13L103.63 167.45L103.74 166.68L103.63 165.9L103.54 165.22L103.34 164.73L103.06 164.25L102.76 163.96L102.38 163.77L101.98 163.67L101.69 163.57L101.11 163.67ZM67.71 174.63L67.8 174.63L68.97 174.54L69.84 174.35L70.43 174.06L70.91 173.66L71.11 173.18L71.3 172.69L71.3 171.53L70.72 171.91L70.14 172.31L69.55 172.5L68.78 172.6L67.9 172.5L67.03 172.11L66.35 171.63L65.66 171.05L65.18 170.17L64.89 169.2L64.6 168.03L64.6 165.51L64.89 164.35L65.18 163.38L65.76 162.6L66.35 161.92L67.12 161.53L67.9 161.24L68.87 161.15L69.55 161.15L70.24 161.34L70.82 161.72L71.3 162.12L71.3 161.34L74.02 161.34L74.02 171.34L73.93 172.6L73.72 173.66L73.24 174.63L73.05 175.03L72.66 175.41L72.37 175.7L71.98 176L71 176.38L69.94 176.67L68.68 176.77L67.71 174.63ZM68.68 163.66L68.3 163.87L68 164.15L67.71 164.54L67.52 165.12L67.42 165.8L67.31 166.68L67.42 167.65L67.52 168.33L67.71 169L68 169.39L68.3 169.69L68.68 169.88L69.06 170.08L69.36 170.08L70.03 169.97L70.52 169.69L71 169.39L71.3 169L71.3 164.64L71 164.25L70.62 163.96L70.03 163.66L69.36 163.57L68.97 163.57L68.68 163.66Z" />
		<path id="Path 14" fill-rule="evenodd" class="shp0" d="M70.24 161.32L70.83 161.71L70.83 161.71L71.28 162.08L71.28 161.32L74.04 161.32L74.04 171.34L73.94 172.6L73.75 173.67L73.25 174.64L73.06 175.03L73.06 175.04L72.68 175.42L72.38 175.71L72 176.01L71.02 176.4L69.95 176.69L68.67 176.79L67.68 174.62L67.81 174.62L68.97 174.51L69.84 174.32L70.42 174.04L70.9 173.65L71.09 173.17L71.28 172.69L71.28 171.56L70.73 171.93L70.14 172.32L70.14 172.32L69.56 172.51L68.78 172.61L67.9 172.51L67.02 172.12L66.34 171.64L65.65 171.06L65.17 170.18L64.87 169.2L64.59 168.03L64.59 165.51L64.87 164.34L65.17 163.37L65.75 162.59L66.34 161.91L67.11 161.52L67.9 161.22L68.87 161.13L69.56 161.13L70.24 161.32ZM69.56 172.5L70.14 172.3L70.72 171.91L71.3 171.53L71.3 172.69L71.11 173.18L70.91 173.67L70.43 174.05L69.84 174.35L68.97 174.54L67.81 174.63L67.71 174.63L68.68 176.76L69.94 176.67L71.01 176.38L71.99 175.99L72.37 175.7L72.67 175.41L73.05 175.02L73.24 174.63L73.72 173.67L73.93 172.6L74.02 171.34L74.02 161.34L71.3 161.34L71.3 162.11L70.82 161.72L70.24 161.34L69.56 161.15L68.87 161.15L67.9 161.24L67.12 161.53L66.35 161.92L65.77 162.6L65.19 163.38L64.89 164.35L64.6 165.51L64.6 168.03L64.89 169.2L65.19 170.17L65.68 171.04L66.35 171.63L67.03 172.11L67.9 172.5L68.78 172.6L69.56 172.5ZM69.36 163.57L70.03 163.67L70.62 163.96L71.01 164.25L71.3 164.64L71.3 169L71.01 169.39L70.53 169.69L70.03 169.97L69.36 170.07L69.06 170.07L68.68 169.88L68.29 169.69L68 169.39L67.71 169L67.52 168.32L67.42 167.65L67.32 166.68L67.42 165.8L67.52 165.12L67.71 164.54L68 164.15L68.29 163.86L68.68 163.67L68.97 163.57L69.36 163.57ZM69.36 170.05L70.03 169.95L70.52 169.66L70.99 169.38L71.28 169L71.28 164.64L70.99 164.26L70.61 163.97L70.03 163.68L69.36 163.59L68.97 163.59L68.68 163.68L68.3 163.88L68.01 164.17L67.72 164.55L67.53 165.12L67.43 165.8L67.34 166.68L67.43 167.64L67.53 168.32L67.72 168.99L68.01 169.38L68.3 169.66L68.69 169.86L69.08 170.05L69.36 170.05Z" />
		<path id="Path 15" fill-rule="evenodd" class="shp0" d="M70.24 161.33L70.81 161.73L71.3 162.12L71.3 161.33L74.02 161.33L74.02 171.33L73.93 172.6L73.73 173.66L73.24 174.63L73.05 175.03L72.66 175.41L72.37 175.7L71.99 176L71.01 176.38L69.94 176.67L68.68 176.77L67.71 174.63L67.81 174.63L68.97 174.54L69.84 174.35L70.43 174.05L70.92 173.66L71.1 173.18L71.3 172.69L71.3 171.53L70.72 171.92L70.13 172.31L69.56 172.5L68.78 172.6L67.9 172.5L67.03 172.11L66.35 171.63L65.67 171.05L65.19 170.17L64.9 169.2L64.6 168.03L64.6 165.51L64.9 164.35L65.19 163.38L65.77 162.6L66.35 161.92L67.12 161.53L67.9 161.24L68.87 161.15L69.56 161.15L70.24 161.33ZM69.56 172.48L70.13 172.29L70.71 171.91L71.31 171.49L71.31 172.7L71.12 173.18L70.93 173.67L70.44 174.07L70.43 174.07L69.86 174.36L68.98 174.56L67.81 174.65L67.74 174.65L68.69 176.75L69.94 176.66L71.01 176.36L71.98 175.98L72.36 175.69L72.65 175.4L73.03 175.02L73.23 174.62L73.71 173.66L73.9 172.6L74 171.33L74 161.36L71.31 161.36L71.31 162.16L71.29 162.13L70.8 161.74L70.23 161.35L69.56 161.16L68.87 161.16L67.9 161.26L67.13 161.55L66.37 161.94L65.78 162.61L65.2 163.39L64.91 164.35L64.62 165.51L64.62 168.03L64.91 169.2L65.2 170.16L65.69 171.04L66.37 171.62L67.04 172.1L67.9 172.48L68.78 172.58L69.56 172.48ZM69.36 163.55L70.04 163.66L70.63 163.94L71.02 164.24L71.31 164.62L71.31 169.02L71.02 169.41L71.02 169.41L70.54 169.7L70.04 169.99L69.36 170.09L69.05 170.09L68.67 169.9L68.27 169.7L67.99 169.41L67.99 169.4L67.69 169.02L67.69 169.01L67.5 168.33L67.4 167.65L67.31 166.67L67.4 165.8L67.5 165.12L67.69 164.53L67.69 164.53L67.99 164.14L68.27 163.85L68.29 163.85L68.67 163.66L68.68 163.66L68.97 163.55L69.36 163.55ZM69.36 170.07L70.04 169.98L70.52 169.69L71.01 169.39L71.3 169.01L71.3 164.64L71.01 164.25L70.62 163.96L70.04 163.66L69.36 163.57L68.97 163.57L68.68 163.66L68.29 163.87L68 164.15L67.71 164.54L67.52 165.12L67.41 165.8L67.32 166.67L67.41 167.65L67.52 168.33L67.71 169.01L68 169.39L68.29 169.69L68.68 169.88L69.06 170.07L69.36 170.07ZM83.83 172.5L83.15 172.4L82.46 172.11L81.89 171.72L81.3 171.14L80.92 170.46L80.62 169.68L80.52 168.72L80.62 167.75L80.92 166.97L81.4 166.38L81.98 165.9L82.67 165.51L83.34 165.32L84.12 165.12L85.48 165.12L86.16 165.22L86.74 165.41L87.23 165.61L87.23 164.54L87.13 164.15L86.93 163.86L86.74 163.66L86.45 163.47L86.06 163.38L85.29 163.28L83.73 163.47L83.05 163.77L82.46 164.05L81.4 162.21L82.37 161.72L83.34 161.34L84.42 161.15L86.45 161.15L87.33 161.34L88.1 161.72L88.78 162.12L89.27 162.69L89.66 163.28L89.85 164.05L89.94 164.93L89.94 172.31L87.23 172.31L87.23 171.42L86.64 171.92L85.86 172.31L85.18 172.5L84.61 172.6L83.83 172.5ZM84.31 167.26L84.02 167.36L83.73 167.55L83.54 167.75L83.34 168.03L83.24 168.33L83.24 169.01L83.34 169.39L83.54 169.68L83.73 169.88L84.02 170.07L84.31 170.17L84.7 170.26L85.09 170.36L85.77 170.26L86.45 169.97L86.85 169.59L87.23 169.2L87.23 167.65L86.74 167.45L86.26 167.26L85.67 167.16L84.7 167.16L84.31 167.26ZM71.3 162.12L71.31 162.12L71.3 162.12Z" />
		<path id="Path 16" fill-rule="evenodd" class="shp0" d="M87.33 161.32L88.1 161.71L88.79 162.1L89.28 162.69L89.67 163.27L89.86 164.05L89.97 164.93L89.97 172.32L87.21 172.32L87.21 171.47L86.65 171.93L85.87 172.32L85.19 172.51L84.61 172.61L83.83 172.51L83.14 172.42L82.46 172.13L81.88 171.74L81.29 171.15L80.9 170.46L80.61 169.69L80.51 168.72L80.61 167.74L80.9 166.96L81.39 166.37L81.97 165.88L82.65 165.5L83.34 165.3L84.12 165.11L85.48 165.11L86.16 165.2L86.16 165.2L86.75 165.4L87.21 165.58L87.21 164.55L87.11 164.15L86.92 163.88L86.73 163.69L86.44 163.49L86.05 163.39L85.29 163.3L84.51 163.39L83.73 163.49L83.06 163.78L82.47 164.07L82.46 164.08L81.38 162.2L82.37 161.71L83.34 161.32L84.4 161.13L86.45 161.13L87.33 161.32ZM83.05 163.77L83.73 163.47L84.51 163.38L85.29 163.28L86.05 163.38L86.45 163.47L86.74 163.66L86.93 163.87L87.13 164.15L87.23 164.54L87.23 165.61L86.74 165.41L86.16 165.22L85.48 165.12L84.12 165.12L83.34 165.32L82.65 165.51L81.98 165.9L81.4 166.38L80.92 166.97L80.62 167.75L80.52 168.72L80.62 169.69L80.92 170.46L81.3 171.14L81.89 171.72L82.47 172.11L83.14 172.41L83.83 172.5L84.61 172.6L85.19 172.5L85.87 172.31L86.64 171.92L87.23 171.44L87.23 172.31L89.94 172.31L89.94 164.93L89.85 164.05L89.66 163.28L89.26 162.69L88.77 162.12L88.1 161.73L87.32 161.33L86.45 161.15L84.41 161.15L83.34 161.33L82.37 161.73L81.4 162.21L82.47 164.05L83.05 163.77ZM85.67 167.16L86.26 167.26L86.74 167.45L87.23 167.65L87.23 169.2L86.83 169.59L86.45 169.98L85.77 170.26L85.09 170.37L84.7 170.26L84.32 170.17L84.02 170.07L83.73 169.88L83.54 169.69L83.34 169.39L83.24 169.01L83.24 168.72L83.26 168.72L83.26 169.01L83.36 169.39L83.55 169.67L83.74 169.87L84.03 170.06L84.32 170.15L84.7 170.25L85.09 170.35L85.77 170.25L86.44 169.96L86.82 169.58L87.21 169.19L87.21 167.66L86.74 167.47L86.25 167.28L85.67 167.18L84.7 167.18L84.32 167.28L84.03 167.37L83.74 167.57L83.55 167.76L83.36 168.04L83.26 168.33L83.26 168.72L83.24 168.72L83.24 168.33L83.34 168.04L83.54 167.75L83.73 167.55L84.02 167.35L84.32 167.26L84.7 167.16L85.67 167.16Z" />
		<path id="Path 17" fill-rule="evenodd" class="shp0" d="M87.32 161.34L88.1 161.72L88.78 162.11L89.26 162.69L89.65 163.28L89.85 164.06L89.94 164.93L89.94 172.3L87.23 172.3L87.23 171.43L86.64 171.92L85.86 172.3L85.19 172.5L84.61 172.6L83.83 172.5L83.14 172.4L82.46 172.11L81.89 171.72L81.3 171.14L80.92 170.46L80.63 169.69L80.52 168.71L80.63 167.74L80.92 166.97L81.4 166.38L81.98 165.9L82.66 165.51L83.35 165.32L84.12 165.12L85.48 165.12L86.16 165.22L86.74 165.41L87.23 165.6L87.23 164.54L87.12 164.15L86.94 163.86L86.74 163.67L86.45 163.47L86.07 163.38L85.28 163.28L84.51 163.38L83.73 163.47L83.05 163.77L82.46 164.06L81.4 162.21L82.37 161.72L83.35 161.34L84.4 161.14L86.45 161.14L87.32 161.34ZM83.04 163.75L83.72 163.46L83.73 163.46L84.51 163.36L85.28 163.26L85.29 163.26L86.07 163.36L86.45 163.46L86.46 163.46L86.76 163.65L86.95 163.85L87.14 164.14L87.14 164.15L87.25 164.54L87.25 165.64L87.22 165.63L86.74 165.43L86.15 165.24L85.48 165.15L84.12 165.15L83.35 165.34L82.66 165.52L81.99 165.91L81.41 166.4L80.93 166.98L80.64 167.75L80.54 168.71L80.64 169.68L80.93 170.46L81.32 171.13L81.9 171.71L82.47 172.09L83.16 172.38L83.83 172.48L84.61 172.58L85.18 172.48L85.86 172.29L86.63 171.9L87.25 171.39L87.25 172.29L89.92 172.29L89.92 164.93L89.83 164.06L89.64 163.29L89.25 162.71L88.77 162.13L88.09 161.75L87.31 161.36L86.45 161.17L84.41 161.17L83.35 161.36L82.38 161.75L81.42 162.21L82.47 164.03L83.04 163.75ZM85.67 167.14L86.26 167.24L86.27 167.24L86.75 167.44L87.25 167.63L87.25 169.21L87.24 169.21L86.85 169.6L86.46 169.99L85.77 170.28L85.09 170.38L84.7 170.28L84.31 170.19L84.02 170.09L84.01 170.09L83.72 169.89L83.53 169.7L83.33 169.4L83.33 169.39L83.23 169.01L83.23 168.71L83.24 168.71L83.24 169.01L83.35 169.39L83.54 169.69L83.73 169.88L84.02 170.07L84.32 170.17L84.7 170.27L85.09 170.37L85.77 170.27L86.45 169.98L86.83 169.59L87.23 169.2L87.23 167.64L86.74 167.45L86.26 167.26L85.67 167.16L84.7 167.16L84.32 167.26L84.02 167.35L83.73 167.55L83.54 167.74L83.35 168.03L83.24 168.32L83.24 168.71L83.23 168.71L83.23 168.32L83.33 168.02L83.53 167.73L83.72 167.53L84.02 167.34L84.31 167.24L84.7 167.14L85.67 167.14ZM111.89 172.5L110.82 172.1L109.94 171.63L109.26 171.04L108.59 170.17L108.21 169.19L107.91 168.13L107.81 166.87L107.91 165.6L108.21 164.54L108.59 163.57L109.18 162.7L109.94 162.02L110.72 161.53L111.69 161.24L112.77 161.14L113.74 161.24L114.61 161.53L115.38 162.02L116.06 162.7L116.65 163.47L117.03 164.44L117.22 165.6L117.33 166.87L117.33 167.64L110.53 167.64L110.72 168.42L110.92 169L111.31 169.39L111.61 169.69L112.09 169.88L112.37 169.97L113.06 170.07L113.74 169.97L114.32 169.78L114.8 169.48L115.19 169.1L116.94 170.85L116.46 171.24L116.06 171.63L115.58 171.91L115.09 172.1L114.12 172.5L113.06 172.6L111.89 172.5ZM112.28 163.47L111.89 163.57L111.5 163.77L111.21 164.06L111.02 164.35L110.82 164.73L110.63 165.22L110.63 165.71L114.71 165.71L114.61 164.83L114.41 164.44L114.22 164.15L113.93 163.86L113.54 163.57L113.15 163.47L112.66 163.38L112.28 163.47ZM82.46 164.06L82.48 164.05L82.46 164.06Z" />
		<path id="Path 18" fill-rule="evenodd" class="shp0" d="M113.74 161.22L114.61 161.52L115.39 162L116.07 162.69L116.66 163.47L117.05 164.44L117.25 165.6L117.34 166.87L117.34 167.66L110.55 167.66L110.74 168.42L110.94 169L111.32 169.38L111.61 169.67L112.1 169.86L112.37 169.95L113.06 170.06L113.73 169.95L114.31 169.76L114.79 169.47L115.18 169.09L115.2 169.08L116.97 170.85L116.95 170.86L116.47 171.25L116.07 171.64L116.07 171.64L115.58 171.93L115.1 172.13L114.12 172.51L113.06 172.61L111.88 172.51L110.82 172.13L109.94 171.64L109.25 171.06L108.57 170.18L108.19 169.2L107.89 168.13L107.79 166.87L107.89 165.6L108.19 164.54L108.57 163.57L109.16 162.69L109.94 162L110.72 161.52L111.69 161.22L112.77 161.13L113.74 161.22ZM114.12 172.5L115.09 172.11L115.57 171.92L116.06 171.63L116.46 171.24L116.94 170.85L115.2 169.1L114.8 169.49L114.31 169.78L113.74 169.98L113.06 170.07L112.37 169.98L112.09 169.88L111.6 169.68L111.31 169.4L110.93 169.01L110.72 168.42L110.53 167.65L117.33 167.65L117.33 166.87L117.23 165.62L117.04 164.44L116.65 163.47L116.06 162.69L115.38 162.01L114.61 161.53L113.74 161.24L112.77 161.15L111.69 161.24L110.72 161.53L109.95 162.01L109.18 162.69L108.59 163.57L108.21 164.54L107.91 165.62L107.81 166.87L107.91 168.13L108.21 169.2L108.59 170.17L109.27 171.05L109.95 171.63L110.82 172.11L111.89 172.5L113.06 172.6L114.12 172.5ZM112.66 163.38L113.15 163.47L113.54 163.57L113.93 163.86L114.22 164.15L114.41 164.44L114.61 164.83L114.71 165.7L110.64 165.7L110.64 165.22L110.82 164.74L111.02 164.35L111.21 164.06L111.5 163.77L111.89 163.57L112.28 163.47L112.66 163.38ZM114.69 165.69L114.59 164.84L114.4 164.45L114.21 164.17L113.92 163.88L113.54 163.59L113.15 163.49L112.66 163.4L112.29 163.49L111.89 163.59L111.51 163.78L111.22 164.07L111.03 164.36L110.84 164.74L110.65 165.22L110.65 165.69L114.69 165.69Z" />
		<path id="Path 19" fill-rule="evenodd" class="shp0" d="M113.74 161.24L114.61 161.53L115.38 162.02L116.06 162.69L116.65 163.47L117.03 164.44L117.23 165.6L117.33 166.87L117.33 167.64L110.53 167.64L110.72 168.42L110.91 169L111.31 169.39L111.59 169.69L112.09 169.88L112.37 169.97L113.06 170.07L113.74 169.97L114.31 169.78L114.8 169.49L115.19 169.1L116.94 170.85L116.46 171.24L116.06 171.63L115.58 171.91L115.09 172.11L114.12 172.5L113.06 172.6L111.89 172.5L110.82 172.11L109.94 171.63L109.26 171.04L108.59 170.17L108.2 169.2L107.91 168.13L107.81 166.87L107.91 165.6L108.2 164.54L108.59 163.57L109.18 162.69L109.94 162.02L110.72 161.53L111.69 161.24L112.76 161.14L113.74 161.24ZM114.11 172.48L115.09 172.09L115.57 171.9L116.05 171.61L116.45 171.22L116.92 170.85L115.19 169.13L114.82 169.5L114.8 169.5L114.32 169.8L113.74 169.99L113.06 170.09L112.37 169.99L112.08 169.9L111.58 169.7L111.3 169.41L110.9 169.01L110.9 169L110.7 168.43L110.51 167.63L117.31 167.63L117.31 166.87L117.21 165.62L117.02 164.45L116.63 163.48L116.05 162.71L115.37 162.03L114.6 161.54L113.73 161.25L112.76 161.16L111.7 161.25L110.73 161.54L109.95 162.03L109.19 162.71L108.6 163.58L108.22 164.54L107.93 165.62L107.83 166.87L107.93 168.13L108.22 169.2L108.6 170.16L109.28 171.03L109.95 171.61L110.83 172.09L111.89 172.48L113.06 172.58L114.11 172.48ZM112.66 163.36L112.67 163.36L113.15 163.46L113.55 163.56L113.56 163.56L113.94 163.85L113.94 163.85L114.24 164.14L114.24 164.14L114.43 164.43L114.62 164.83L114.73 165.72L110.62 165.72L110.62 165.21L110.81 164.73L111 164.34L111.2 164.05L111.2 164.04L111.49 163.75L111.88 163.56L111.88 163.55L112.27 163.46L112.66 163.36ZM114.71 165.71L114.61 164.83L114.42 164.44L114.22 164.15L113.93 163.86L113.55 163.57L113.15 163.47L112.66 163.38L112.28 163.47L111.89 163.57L111.5 163.77L111.21 164.06L111.02 164.35L110.82 164.73L110.63 165.22L110.63 165.71L114.71 165.71ZM138.11 172.5L137.04 172.1L136.17 171.63L135.39 171.04L134.8 170.17L134.32 169.19L134.13 168.13L134.03 166.87L134.13 165.6L134.32 164.54L134.8 163.57L135.39 162.7L136.07 162.02L136.95 161.53L137.91 161.24L138.88 161.14L139.95 161.24L140.82 161.53L141.6 162.02L142.29 162.7L142.78 163.47L143.16 164.44L143.45 165.6L143.54 166.87L143.54 167.64L136.74 167.64L136.85 168.42L137.14 169L137.43 169.39L137.82 169.69L138.2 169.88L138.6 169.97L139.17 170.07L139.86 169.97L140.44 169.78L140.92 169.48L141.41 169.1L143.06 170.85L142.68 171.24L142.19 171.63L141.8 171.91L141.31 172.1L140.25 172.5L139.17 172.6L138.11 172.5ZM138.4 163.47L138.01 163.57L137.72 163.76L137.43 164.06L137.14 164.35L136.95 164.73L136.85 165.22L136.85 165.71L140.92 165.71L140.73 164.83L140.63 164.44L140.44 164.15L140.14 163.86L139.76 163.57L139.38 163.47L138.88 163.38L138.4 163.47Z" />
		<path id="Path 20" fill-rule="evenodd" class="shp0" d="M139.95 161.22L140.83 161.52L141.61 162L142.3 162.69L142.79 163.46L143.17 164.44L143.47 165.6L143.56 166.87L143.56 167.66L136.77 167.66L136.86 168.42L137.16 169L137.44 169.38L137.83 169.67L138.21 169.86L138.6 169.95L139.18 170.05L139.85 169.95L140.43 169.76L140.91 169.47L141.4 169.09L141.41 169.07L143.08 170.85L143.07 170.86L142.68 171.25L142.2 171.64L141.8 171.93L141.8 171.94L141.31 172.13L140.25 172.51L139.18 172.61L138.11 172.51L137.03 172.13L136.15 171.64L135.38 171.06L134.79 170.18L134.3 169.21L134.11 168.13L134.01 166.87L134.11 165.6L134.3 164.53L134.79 163.56L135.38 162.69L136.06 162L136.93 161.52L137.91 161.22L138.88 161.13L139.95 161.22ZM140.24 172.5L141.31 172.11L141.79 171.92L142.19 171.63L142.67 171.23L143.06 170.85L141.41 169.1L140.92 169.49L140.44 169.78L139.85 169.98L139.18 170.07L138.6 169.98L138.2 169.88L137.82 169.68L137.43 169.39L137.14 169.01L136.85 168.42L136.75 167.65L143.54 167.65L143.54 166.87L143.45 165.61L143.16 164.45L142.76 163.47L142.29 162.69L141.6 162.02L140.82 161.53L139.95 161.24L138.88 161.15L137.91 161.24L136.95 161.53L136.07 162.02L135.39 162.69L134.8 163.57L134.32 164.54L134.12 165.61L134.04 166.87L134.12 168.13L134.32 169.2L134.8 170.17L135.39 171.05L136.17 171.63L137.04 172.11L138.11 172.5L139.18 172.6L140.24 172.5ZM138.88 163.37L139.36 163.47L139.76 163.57L140.15 163.87L140.44 164.15L140.63 164.45L140.73 164.83L140.92 165.71L136.85 165.71L136.85 165.22L136.95 164.74L137.14 164.35L137.43 164.05L137.72 163.77L138.01 163.57L138.4 163.47L138.88 163.37ZM140.9 165.69L140.71 164.84L140.61 164.45L140.42 164.17L140.13 163.88L139.75 163.58L139.36 163.49L138.88 163.39L138.4 163.49L138.01 163.58L137.73 163.78L137.44 164.06L137.16 164.36L136.97 164.74L136.86 165.22L136.86 165.69L140.9 165.69Z" />
		<path id="Path 21" fill-rule="evenodd" class="shp0" d="M139.95 161.24L140.83 161.53L141.6 162.02L142.29 162.69L142.77 163.47L143.16 164.44L143.45 165.6L143.54 166.87L143.54 167.64L136.75 167.64L136.85 168.42L137.14 169L137.43 169.39L137.82 169.69L138.2 169.88L138.6 169.97L139.17 170.07L139.85 169.97L140.44 169.78L140.92 169.49L141.41 169.1L143.06 170.85L142.67 171.24L142.18 171.63L141.8 171.91L141.31 172.11L140.25 172.5L139.17 172.6L138.11 172.5L137.04 172.11L136.17 171.63L135.39 171.04L134.8 170.17L134.32 169.2L134.13 168.13L134.04 166.87L134.13 165.6L134.32 164.54L134.8 163.57L135.39 162.69L136.07 162.02L136.95 161.53L137.91 161.24L138.88 161.14L139.95 161.24ZM140.24 172.48L141.31 172.09L141.79 171.9L142.17 171.61L142.66 171.22L143.03 170.85L141.41 169.13L140.93 169.5L140.45 169.8L140.44 169.8L139.86 169.99L139.85 169.99L139.17 170.09L138.6 169.99L138.2 169.9L138.2 169.89L137.81 169.7L137.42 169.41L137.41 169.41L137.13 169.01L137.12 169.01L136.83 168.43L136.83 168.42L136.72 167.63L143.52 167.63L143.52 166.87L143.44 165.62L143.14 164.45L142.75 163.48L142.27 162.71L141.59 162.03L140.81 161.54L139.95 161.25L138.88 161.16L137.92 161.25L136.95 161.54L136.08 162.03L135.41 162.71L134.82 163.58L134.34 164.54L134.14 165.62L134.05 166.87L134.14 168.13L134.34 169.2L134.82 170.16L135.41 171.03L136.18 171.61L137.05 172.09L138.12 172.48L139.17 172.58L140.24 172.48ZM138.88 163.36L138.89 163.36L139.38 163.46L139.77 163.56L140.16 163.85L140.16 163.85L140.45 164.14L140.45 164.14L140.65 164.44L140.75 164.83L140.94 165.72L136.83 165.72L136.83 165.21L136.92 164.73L137.13 164.34L137.42 164.04L137.71 163.75L138 163.56L138.01 163.55L138.39 163.46L138.88 163.36ZM140.92 165.71L140.73 164.83L140.63 164.44L140.44 164.15L140.15 163.86L139.76 163.57L139.38 163.47L138.88 163.38L138.4 163.47L138.01 163.57L137.72 163.76L137.43 164.06L137.14 164.35L136.95 164.73L136.85 165.22L136.85 165.71L140.92 165.71ZM129.76 172.5L129.08 172.21L128.6 171.91L128.2 171.43L127.92 170.94L127.71 170.36L127.63 169.78L127.52 169.2L127.52 163.86L125.87 163.86L125.87 161.34L127.52 161.34L127.52 158.52L130.24 157.16L130.24 161.34L132.76 161.34L132.76 163.86L130.24 163.86L130.24 168.52L130.33 169.2L130.53 169.59L130.73 169.78L130.92 169.88L131.4 169.97L131.89 169.97L132.29 169.88L133.05 169.49L132.76 172.01L132.29 172.3L131.7 172.4L131.11 172.5L130.43 172.6L129.76 172.5Z" />
		<path id="Path 22" fill-rule="evenodd" class="shp0" d="M130.26 161.32L132.79 161.32L132.79 163.88L130.26 163.88L130.26 168.51L130.36 169.19L130.55 169.58L130.74 169.76L130.92 169.86L131.41 169.95L131.89 169.95L132.28 169.86L133.08 169.46L132.79 172.02L132.78 172.03L132.29 172.32L131.7 172.42L131.11 172.52L130.43 172.62L129.75 172.52L129.07 172.22L128.58 171.94L128.58 171.92L128.18 171.44L127.9 170.95L127.9 170.95L127.7 170.37L127.61 169.78L127.5 169.2L127.5 163.88L125.86 163.88L125.86 161.32L127.5 161.32L127.5 158.51L130.26 157.14L130.26 161.32ZM127.52 163.86L127.52 169.2L127.62 169.78L127.71 170.36L127.92 170.95L128.2 171.43L128.59 171.92L129.08 172.2L129.76 172.5L130.43 172.59L131.11 172.5L131.7 172.4L132.28 172.3L132.76 172.01L133.06 169.49L132.28 169.88L131.89 169.98L131.4 169.98L130.92 169.88L130.73 169.78L130.54 169.59L130.35 169.2L130.24 168.51L130.24 163.86L132.76 163.86L132.76 161.34L130.24 161.34L130.24 157.16L127.52 158.53L127.52 161.34L125.87 161.34L125.87 163.86L127.52 163.86Z" />
		<path id="Path 23" fill-rule="evenodd" class="shp0" d="M130.24 161.34L132.77 161.34L132.77 163.86L130.24 163.86L130.24 168.52L130.34 169.2L130.54 169.59L130.73 169.78L130.92 169.88L131.41 169.97L131.89 169.97L132.29 169.88L133.05 169.49L132.77 172.01L132.29 172.3L131.7 172.4L131.11 172.5L130.44 172.6L129.76 172.5L129.08 172.21L128.59 171.91L128.2 171.43L127.91 170.94L127.72 170.36L127.62 169.78L127.52 169.2L127.52 163.86L125.88 163.86L125.88 161.34L127.52 161.34L127.52 158.52L130.24 157.16L130.24 161.34ZM127.54 163.85L127.54 169.19L127.64 169.78L127.73 170.36L127.93 170.93L128.21 171.41L128.61 171.9L129.09 172.19L129.76 172.48L130.44 172.57L131.11 172.48L131.7 172.38L132.28 172.29L132.76 172L133.03 169.51L132.29 169.89L131.89 169.99L131.4 169.99L130.92 169.89L130.91 169.89L130.72 169.79L130.52 169.6L130.52 169.59L130.33 169.21L130.33 169.2L130.23 168.52L130.23 163.85L132.76 163.85L132.76 161.35L130.23 161.35L130.23 157.19L127.54 158.53L127.54 161.35L125.89 161.35L125.89 163.85L127.54 163.85ZM121.99 172.5L121.31 172.21L120.83 171.91L120.44 171.43L120.14 170.94L119.95 170.36L119.86 169.78L119.76 169.2L119.76 163.86L118.1 163.86L118.1 161.34L119.76 161.34L119.76 158.52L122.47 157.16L122.47 161.34L124.8 161.34L124.8 163.86L122.47 163.86L122.47 168.52L122.58 169.2L122.77 169.59L122.96 169.78L123.15 169.88L123.64 169.97L124.12 169.97L124.52 169.88L125.29 169.49L125.01 172.01L124.52 172.3L123.93 172.4L123.35 172.5L122.66 172.6L121.99 172.5Z" />
		<path id="Path 24" fill-rule="evenodd" class="shp0" d="M122.49 161.32L124.82 161.32L124.82 163.88L122.49 163.88L122.49 168.51L122.58 169.19L122.78 169.58L122.97 169.76L123.16 169.86L123.64 169.95L124.12 169.95L124.5 169.86L125.28 169.47L125.32 169.46L125.02 172.02L125.01 172.03L124.52 172.32L124.51 172.32L123.93 172.42L123.35 172.52L122.67 172.62L122.66 172.62L121.99 172.52L121.31 172.22L120.82 171.94L120.82 171.92L120.42 171.44L120.13 170.95L120.12 170.95L119.93 170.37L119.84 169.78L119.74 169.2L119.74 163.88L118.09 163.88L118.09 161.32L119.74 161.32L119.74 158.51L122.49 157.14L122.49 161.32ZM119.75 163.86L119.75 169.2L119.84 169.78L119.95 170.36L120.14 170.95L120.43 171.43L120.83 171.92L121.31 172.2L121.99 172.5L122.67 172.59L123.35 172.5L123.93 172.4L124.51 172.3L124.99 172.01L125.29 169.49L124.51 169.88L124.12 169.98L123.64 169.98L123.15 169.88L122.96 169.78L122.77 169.59L122.57 169.2L122.48 168.51L122.48 163.86L124.8 163.86L124.8 161.34L122.48 161.34L122.48 157.16L119.75 158.53L119.75 161.34L118.11 161.34L118.11 163.86L119.75 163.86Z" />
		<path id="Path 25" fill-rule="evenodd" class="shp0" d="M122.47 161.34L124.8 161.34L124.8 163.86L122.47 163.86L122.47 168.52L122.58 169.2L122.77 169.59L122.96 169.78L123.15 169.88L123.64 169.97L124.13 169.97L124.51 169.88L125.29 169.49L125 172.01L124.51 172.3L123.93 172.4L123.34 172.5L122.67 172.6L121.99 172.5L121.31 172.21L120.83 171.91L120.43 171.43L120.14 170.94L119.95 170.36L119.86 169.78L119.75 169.2L119.75 163.86L118.11 163.86L118.11 161.34L119.75 161.34L119.75 158.52L122.47 157.16L122.47 161.34ZM119.77 163.85L119.77 169.19L119.87 169.78L119.96 170.36L120.16 170.93L120.44 171.41L120.84 171.9L121.32 172.19L121.99 172.48L122.67 172.57L123.34 172.48L123.93 172.38L124.5 172.29L124.98 172L125.27 169.51L124.51 169.89L124.13 169.99L123.63 169.99L123.15 169.89L123.14 169.89L122.95 169.79L122.75 169.6L122.75 169.59L122.56 169.21L122.56 169.2L122.46 168.52L122.46 163.85L124.78 163.85L124.78 161.35L122.46 161.35L122.46 157.19L119.77 158.53L119.77 161.35L118.12 161.35L118.12 163.85L119.77 163.85ZM145.29 172.3L145.29 161.34L148.01 161.34L148.01 162.3L148.5 161.72L149.08 161.43L149.76 161.14L150.93 161.14L151.5 161.24L152 161.53L152.48 161.72L151.7 164.44L151.32 164.15L150.93 163.96L150.44 163.86L149.47 163.86L149.08 163.96L148.79 164.15L148.5 164.44L148.31 164.83L148.11 165.22L148.01 165.81L148.01 172.3L145.29 172.3Z" />
		<path id="Path 26" fill-rule="evenodd" class="shp0" d="M150.93 161.13L151.52 161.22L152 161.52L152.48 161.7L152.51 161.71L151.71 164.47L151.69 164.46L151.3 164.17L150.92 163.97L150.44 163.88L149.47 163.88L149.08 163.97L148.8 164.17L148.51 164.45L148.32 164.84L148.13 165.22L148.03 165.81L148.03 172.32L145.27 172.32L145.27 161.32L148.03 161.32L148.03 162.26L148.49 161.71L148.49 161.7L149.07 161.41L149.76 161.12L150.93 161.12L150.93 161.13ZM148.01 161.33L145.29 161.33L145.29 172.31L148.01 172.31L148.01 165.81L148.11 165.21L148.31 164.84L148.5 164.44L148.79 164.15L149.08 163.95L149.47 163.86L150.44 163.86L150.93 163.95L151.31 164.15L151.7 164.44L152.48 161.72L151.99 161.53L151.5 161.23L150.93 161.14L149.76 161.14L149.08 161.44L148.5 161.72L148.01 162.31L148.01 161.33Z" />
		<path id="Path 27" fill-rule="evenodd" class="shp0" d="M151.51 161.23L152 161.53L152.48 161.72L151.71 164.44L151.32 164.15L150.92 163.95L150.44 163.86L149.47 163.86L149.09 163.95L148.79 164.15L148.5 164.44L148.31 164.82L148.12 165.21L148.01 165.81L148.01 172.31L145.29 172.31L145.29 161.33L148.01 161.33L148.01 162.31L148.5 161.72L149.09 161.44L149.76 161.14L150.92 161.14L151.51 161.23ZM148.51 161.74L147.99 162.35L147.99 161.36L145.31 161.36L145.31 172.28L147.99 172.28L147.99 165.8L148.09 165.21L148.29 164.82L148.48 164.43L148.78 164.13L149.08 163.94L149.47 163.84L150.44 163.84L150.93 163.94L151.32 164.13L151.69 164.41L152.46 161.73L151.99 161.55L151.51 161.25L150.92 161.16L149.77 161.16L149.09 161.45L148.51 161.74ZM26.54 157.07L29.25 157.07L29.25 159.78L26.54 159.78L26.54 157.07Z" />
		<path id="Path 28" fill-rule="evenodd" class="shp0" d="M29.27 157.04L29.27 159.8L26.52 159.8L26.52 157.04L29.27 157.04ZM26.53 159.79L29.25 159.79L29.25 157.07L26.53 157.07L26.53 159.79ZM29.25 157.07L29.24 157.07L29.25 157.07Z" />
		<path id="Path 29" fill-rule="evenodd" class="shp0" d="M26.54 157.07L29.25 157.07L29.25 159.78L26.54 159.78L26.54 157.07ZM26.55 159.76L29.24 159.76L29.24 157.08L26.55 157.08L26.55 159.76ZM48.09 161.33L50.82 161.33L50.82 172.3L48.09 172.3L48.09 161.33Z" />
		<path id="Path 30" fill-rule="evenodd" class="shp0" d="M50.84 161.32L50.84 172.32L48.08 172.32L48.08 161.32L50.84 161.32ZM48.1 172.31L50.82 172.31L50.82 161.34L48.1 161.34L48.1 172.31Z" />
		<path id="Path 31" fill-rule="evenodd" class="shp0" d="M48.08 161.33L50.81 161.33L50.81 172.3L48.08 172.3L48.08 161.33ZM48.11 172.29L50.79 172.29L50.79 161.35L48.11 161.35L48.11 172.29ZM48.09 157.07L50.82 157.07L50.82 159.78L48.09 159.78L48.09 157.07ZM48.08 172.3L48.11 172.3L48.08 172.3Z" />
		<path id="Path 32" fill-rule="evenodd" class="shp0" d="M50.84 157.04L50.84 159.8L48.08 159.8L48.08 157.04L50.84 157.04ZM48.09 159.79L50.82 159.79L50.82 157.07L48.09 157.07L48.09 159.79ZM50.82 157.07L50.79 157.07L50.82 157.07Z" />
		<path id="Path 33" fill-rule="evenodd" class="shp0" d="M48.08 157.07L50.81 157.07L50.81 159.78L48.08 159.78L48.08 157.07ZM48.11 159.76L50.79 159.76L50.79 157.08L48.11 157.08L48.11 159.76ZM122.86 191.71L121.89 191.62L121.12 191.33L120.34 190.84L119.75 190.16L119.27 189.38L118.88 188.32L118.68 187.24L118.59 185.89L118.68 184.63L118.88 183.55L119.27 182.59L119.75 181.81L120.34 181.13L121.12 180.64L121.99 180.36L122.96 180.26L123.54 180.36L124.23 180.55L124.8 180.85L125.39 181.33L125.39 177.34L128.11 175.99L128.11 191.52L125.39 191.52L125.39 190.64L124.8 191.13L124.12 191.52L123.54 191.71L122.86 191.71ZM122.67 182.88L122.37 183.07L122.08 183.36L121.8 183.76L121.6 184.24L121.4 185.01L121.4 186.76L121.6 187.54L121.8 188.13L122.08 188.61L122.37 188.9L122.77 189.09L123.05 189.19L124.12 189.19L124.61 188.9L124.99 188.51L125.39 188.13L125.39 183.85L125.09 183.46L124.61 183.18L124.12 182.88L123.44 182.78L123.05 182.78L122.67 182.88Z" />
		<path id="Path 34" fill-rule="evenodd" class="shp0" d="M128.13 191.54L125.37 191.54L125.37 190.68L124.81 191.14L124.13 191.53L123.55 191.73L122.86 191.73L121.88 191.64L121.11 191.34L120.33 190.85L119.74 190.17L119.25 189.38L118.87 188.32L118.66 187.25L118.57 185.89L118.66 184.62L118.87 183.55L119.25 182.58L119.74 181.8L120.33 181.12L121.11 180.63L121.99 180.34L122.96 180.24L123.55 180.34L124.23 180.54L124.81 180.83L125.37 181.29L125.37 177.34L128.13 175.96L128.13 191.54ZM124.8 180.84L124.23 180.55L123.55 180.36L122.96 180.26L121.99 180.36L121.12 180.65L120.34 181.13L119.75 181.81L119.27 182.58L118.88 183.56L118.69 184.63L118.59 185.89L118.69 187.25L118.88 188.32L119.27 189.38L119.75 190.16L120.34 190.84L121.12 191.33L121.89 191.61L122.86 191.71L123.55 191.71L124.12 191.52L124.8 191.13L125.39 190.64L125.39 191.52L128.11 191.52L128.11 175.99L125.39 177.35L125.39 181.33L124.8 180.84ZM123.44 182.79L124.12 182.88L124.61 183.17L125.1 183.46L125.39 183.85L125.39 188.12L125 188.51L124.61 188.89L124.12 189.18L123.05 189.18L122.77 189.09L122.38 188.89L122.09 188.61L121.8 188.12L121.61 187.54L121.4 186.76L121.4 185.01L121.61 184.24L121.8 183.76L122.09 183.37L122.38 183.07L122.67 182.88L123.05 182.79L123.44 182.79ZM124.12 189.17L124.6 188.88L124.98 188.5L125.37 188.11L125.37 183.86L125.08 183.48L124.6 183.19L124.12 182.9L123.44 182.8L123.07 182.8L122.67 182.9L122.39 183.09L122.1 183.38L121.81 183.76L121.61 184.24L121.42 185.01L121.42 186.76L121.61 187.53L121.81 188.11L122.1 188.6L122.39 188.88L122.77 189.08L123.07 189.17L124.12 189.17Z" />
		<path id="Path 35" fill-rule="evenodd" class="shp0" d="M128.11 191.52L125.39 191.52L125.39 190.64L124.8 191.13L124.12 191.52L123.55 191.71L122.86 191.71L121.89 191.61L121.12 191.33L120.34 190.84L119.76 190.16L119.27 189.38L118.89 188.31L118.68 187.25L118.59 185.89L118.68 184.63L118.89 183.56L119.27 182.59L119.76 181.82L120.34 181.13L121.12 180.65L121.99 180.36L122.96 180.26L123.55 180.36L124.22 180.55L124.8 180.85L125.39 181.33L125.39 177.35L128.11 175.99L128.11 191.52ZM125.4 181.37L124.79 180.86L124.22 180.57L123.53 180.38L122.96 180.28L121.99 180.38L121.13 180.67L120.35 181.15L119.77 181.83L119.28 182.59L118.9 183.56L118.71 184.63L118.61 185.89L118.71 187.24L118.9 188.31L119.28 189.38L119.77 190.15L120.35 190.83L121.13 191.3L121.89 191.6L122.86 191.69L123.53 191.69L124.12 191.5L124.79 191.11L125.4 190.61L125.4 191.5L128.09 191.5L128.09 176.02L125.4 177.36L125.4 181.37ZM123.45 182.77L124.13 182.86L124.62 183.16L125.1 183.45L125.11 183.45L125.4 183.84L125.4 188.14L125.02 188.52L124.62 188.91L124.13 189.2L123.05 189.2L122.76 189.11L122.36 188.91L122.07 188.62L121.78 188.13L121.59 187.55L121.39 186.76L121.39 185.02L121.59 184.24L121.78 183.75L121.78 183.74L122.07 183.35L122.36 183.06L122.66 182.86L123.05 182.77L123.45 182.77ZM124.12 189.19L124.61 188.9L125.01 188.51L125.39 188.13L125.39 183.85L125.09 183.46L124.61 183.17L124.12 182.88L123.45 182.78L123.05 182.78L122.66 182.88L122.37 183.07L122.09 183.36L121.8 183.75L121.6 184.24L121.4 185.02L121.4 186.76L121.6 187.54L121.8 188.13L122.09 188.61L122.37 188.9L122.77 189.09L123.05 189.19L124.12 189.19ZM26.74 191.52L26.74 180.55L29.45 180.55L29.45 181.52L29.93 180.94L30.52 180.55L31.11 180.36L31.87 180.26L32.36 180.36L32.95 180.45L33.43 180.65L33.92 180.94L33.14 183.56L32.75 183.36L32.27 183.17L31.87 183.07L31.39 182.98L30.9 183.07L30.52 183.17L30.14 183.36L29.93 183.66L29.65 183.95L29.55 184.43L29.45 184.92L29.45 191.52L26.74 191.52ZM125.39 181.33L125.4 181.33L125.39 181.33Z" />
		<path id="Path 36" fill-rule="evenodd" class="shp0" d="M31.87 180.24L32.36 180.34L32.95 180.44L33.44 180.63L33.92 180.92L33.94 180.93L33.15 183.59L33.13 183.58L32.75 183.38L32.26 183.19L31.87 183.1L31.39 183L30.91 183.1L30.53 183.19L30.15 183.38L29.95 183.67L29.94 183.67L29.67 183.96L29.56 184.44L29.46 184.92L29.46 191.54L26.71 191.54L26.71 180.54L29.46 180.54L29.46 181.48L29.92 180.93L30.51 180.54L31.09 180.34L31.87 180.24L31.87 180.24ZM29.45 180.55L26.74 180.55L26.74 191.52L29.45 191.52L29.45 184.92L29.55 184.43L29.65 183.95L29.93 183.66L30.14 183.37L30.52 183.17L30.9 183.07L31.39 182.98L31.87 183.07L32.27 183.17L32.75 183.37L33.14 183.56L33.91 180.94L33.43 180.65L32.94 180.45L32.36 180.36L31.87 180.26L31.1 180.36L30.52 180.55L29.93 180.94L29.45 181.52L29.45 180.55Z" />
		<path id="Path 37" fill-rule="evenodd" class="shp0" d="M32.36 180.36L32.95 180.45L33.43 180.65L33.92 180.94L33.14 183.56L32.75 183.37L32.27 183.18L31.87 183.08L31.39 182.98L30.9 183.08L30.52 183.18L30.14 183.37L29.93 183.66L29.64 183.95L29.55 184.43L29.45 184.92L29.45 191.52L26.73 191.52L26.73 180.55L29.45 180.55L29.45 181.52L29.93 180.94L30.52 180.55L31.1 180.36L31.87 180.26L32.36 180.36ZM29.43 180.57L26.74 180.57L26.74 191.5L29.43 191.5L29.43 184.91L29.53 184.43L29.62 183.94L29.63 183.93L29.92 183.65L30.11 183.35L30.51 183.16L30.9 183.06L31.39 182.96L31.88 183.06L32.27 183.16L32.76 183.35L33.13 183.53L33.9 180.95L33.42 180.67L32.94 180.47L32.35 180.38L31.87 180.28L31.1 180.38L30.53 180.57L29.94 180.95L29.43 181.57L29.43 180.57ZM14.5 180.55L11.39 191.52L9.06 191.52L7.89 186.95L7.22 184.54L6.63 187.05L5.47 191.52L3.13 191.52L3.04 191.42L0.14 180.93L0.14 180.55L2.75 180.55L3.82 184.63L4.3 187.35L4.69 185.89L4.98 184.54L6.14 180.55L8.48 180.55L9.54 184.54L10.22 187.35L10.81 184.54L11.78 180.55L14.5 180.55Z" />
		<path id="Path 38" fill-rule="evenodd" class="shp0" d="M14.52 180.54L11.41 191.54L9.04 191.54L7.88 186.97L7.22 184.61L6.65 187.06L5.48 191.54L3.13 191.54L3.13 191.53L3.02 191.43L0 180.55L0 180.54L2.76 180.54L3.83 184.62L4.31 187.26L4.67 185.88L4.96 184.53L6.13 180.54L8.49 180.54L9.56 184.53L10.22 187.26L10.79 184.53L11.76 180.54L14.52 180.54ZM11.78 180.55L11.78 180.55L14.5 180.55L14.44 180.74L14.5 180.55L11.78 180.55ZM9.54 184.53L9.21 183.31L9.54 184.53L10.22 187.35L10.22 187.35L9.54 184.53ZM8.48 180.55L6.15 180.55L6.15 180.55L8.48 180.55L8.48 180.55ZM2.75 180.55L0.13 180.55L0.13 180.55L2.74 180.55L3.65 184.01L2.75 180.55ZM0.05 180.57L0.13 180.87L0.13 180.87L3.05 191.41L3.15 191.5L5.45 191.5L6.62 187.04L7.2 184.46L7.91 186.95L9.07 191.5L11.38 191.5L14.48 180.57L11.79 180.57L10.82 184.54L10.22 187.43L9.52 184.54L8.46 180.57L6.15 180.57L5 184.54L4.7 185.89L4.3 187.43L3.8 184.63L2.73 180.57L0.13 180.57L0.13 180.57L0.05 180.57ZM3.04 191.42L3.08 191.46L3.04 191.42L1.03 184.2L3.04 191.42ZM5.47 191.52L6.63 187.05L6.64 187.01L6.63 187.05L5.46 191.52L5.47 191.52ZM9.05 191.52L9.06 191.52L8.06 187.63L9.05 191.52ZM7.22 184.53L7.21 184.55L7.8 186.64L7.22 184.53ZM4.3 187.35L4.3 187.33L3.89 185.04L4.3 187.35ZM18.96 191.61L18 191.32L17.22 190.84L16.44 190.16L15.85 189.29L15.37 188.31L15.18 187.24L15.09 185.99L15.18 184.83L15.37 183.75L15.85 182.69L16.44 181.91L17.22 181.23L18 180.74L18.96 180.36L20.03 180.26L21.1 180.36L22.07 180.74L22.84 181.23L23.62 181.91L24.21 182.69L24.69 183.75L24.89 184.83L24.98 185.99L24.89 187.24L24.69 188.31L24.21 189.29L23.62 190.16L22.84 190.84L22.07 191.32L21.1 191.61L20.03 191.71L18.96 191.61ZM19.16 183.08L18.77 183.37L18.38 183.66L18.19 184.14L18 184.72L17.9 185.31L17.8 185.99L17.9 186.67L18 187.35L18.19 187.83L18.38 188.31L18.77 188.7L19.16 189L19.54 189.1L20.03 189.19L20.52 189.1L20.9 189L21.3 188.7L21.68 188.31L21.87 187.83L22.07 187.35L22.26 186.67L22.26 185.31L22.07 184.72L21.87 184.14L21.68 183.66L21.3 183.37L20.9 183.08L20.52 182.88L19.54 182.88L19.16 183.08Z" />
		<path id="Path 39" fill-rule="evenodd" class="shp0" d="M21.1 180.34L22.08 180.73L22.85 181.22L23.64 181.89L24.22 182.67L24.71 183.75L24.9 184.82L25.01 185.98L24.9 187.25L24.71 188.32L24.22 189.29L23.64 190.17L22.85 190.86L22.08 191.34L21.1 191.64L20.03 191.73L18.95 191.64L17.98 191.34L17.21 190.86L16.43 190.17L15.84 189.29L15.35 188.32L15.16 187.25L15.06 185.98L15.16 184.82L15.35 183.75L15.84 182.67L16.43 181.89L17.21 181.22L17.98 180.73L18.95 180.34L20.03 180.24L21.1 180.34ZM18.96 180.36L17.99 180.74L17.22 181.23L16.44 181.91L15.85 182.69L15.37 183.76L15.17 184.82L15.08 185.98L15.17 187.25L15.37 188.32L15.85 189.28L16.44 190.16L17.22 190.84L17.99 191.33L18.96 191.61L20.03 191.71L21.1 191.61L22.07 191.33L22.84 190.84L23.62 190.16L24.21 189.28L24.69 188.32L24.89 187.25L24.98 185.98L24.89 184.82L24.69 183.76L24.21 182.69L23.62 181.91L22.84 181.23L22.07 180.74L21.1 180.36L20.03 180.26L18.96 180.36ZM20.52 182.88L20.9 183.07L21.29 183.37L21.68 183.66L21.87 184.14L22.07 184.72L22.27 185.3L22.27 186.67L22.07 187.35L21.87 187.83L21.68 188.32L21.29 188.7L20.9 189L20.52 189.09L20.03 189.18L19.55 189.09L19.16 189L18.77 188.7L18.38 188.32L18.19 187.83L17.99 187.35L17.89 186.67L17.8 185.98L17.89 185.3L17.99 184.72L18.19 184.14L18.38 183.66L18.77 183.37L19.16 183.07L19.55 182.88L20.52 182.88ZM20.51 189.07L20.9 188.98L21.28 188.69L21.67 188.31L21.86 187.82L22.06 187.34L22.25 186.66L22.25 185.31L22.06 184.73L21.86 184.14L21.67 183.67L21.28 183.38L20.89 183.09L20.51 182.9L19.55 182.9L19.17 183.09L18.78 183.38L18.4 183.67L18.21 184.14L18.01 184.73L17.91 185.31L17.81 185.98L17.91 186.66L18.01 187.34L18.21 187.82L18.4 188.31L18.78 188.69L19.17 188.98L19.55 189.07L20.03 189.17L20.51 189.07Z" />
		<path id="Path 40" fill-rule="evenodd" class="shp0" d="M20.03 180.26L21.1 180.36L22.07 180.75L22.84 181.23L23.62 181.91L24.21 182.69L24.69 183.75L24.89 184.82L24.98 185.98L24.89 187.24L24.69 188.31L24.21 189.29L23.62 190.16L22.84 190.84L22.07 191.33L21.1 191.61L20.03 191.71L18.96 191.61L17.99 191.33L17.22 190.84L16.44 190.16L15.85 189.29L15.37 188.31L15.17 187.24L15.08 185.98L15.17 184.82L15.37 183.75L15.85 182.69L16.44 181.91L17.22 181.23L17.99 180.75L18.96 180.36L20.03 180.26ZM21.1 191.59L22.07 191.3L22.83 190.83L23.61 190.15L24.19 189.28L24.68 188.31L24.87 187.24L24.97 185.98L24.87 184.82L24.68 183.76L24.19 182.69L23.61 181.92L22.83 181.25L22.07 180.76L21.1 180.38L20.03 180.28L18.96 180.38L18 180.76L17.23 181.25L16.45 181.92L15.87 182.69L15.38 183.76L15.19 184.82L15.09 185.98L15.19 187.24L15.38 188.31L15.87 189.28L16.45 190.15L17.23 190.83L18 191.3L18.96 191.59L20.03 191.69L21.1 191.59ZM20.52 182.86L20.91 183.06L21.3 183.35L21.69 183.64L21.7 183.65L21.9 184.14L22.09 184.72L22.28 185.3L22.28 186.67L22.09 187.35L22.09 187.35L21.9 187.83L21.69 188.33L21.3 188.72L20.91 189.01L20.52 189.11L20.04 189.2L20.03 189.2L19.54 189.11L19.15 189.01L18.76 188.72L18.75 188.72L18.37 188.33L18.36 188.32L18.17 187.83L17.97 187.35L17.88 186.67L17.78 185.98L17.88 185.3L17.97 184.72L18.17 184.14L18.37 183.64L18.76 183.35L19.15 183.06L19.54 182.86L20.52 182.86ZM20.52 189.09L20.9 189L21.29 188.7L21.68 188.31L21.87 187.83L22.07 187.34L22.27 186.67L22.27 185.31L22.07 184.73L21.87 184.15L21.68 183.65L21.29 183.36L20.9 183.07L20.52 182.88L19.55 182.88L19.16 183.07L18.77 183.36L18.38 183.65L18.19 184.15L17.99 184.73L17.89 185.31L17.8 185.98L17.89 186.67L17.99 187.34L18.19 187.83L18.38 188.31L18.77 188.7L19.16 189L19.55 189.09L20.03 189.19L20.52 189.09ZM105.48 191.52L105.48 180.55L108.2 180.55L108.2 181.52L108.78 180.94L109.37 180.55L109.94 180.36L110.63 180.26L111.21 180.36L111.79 180.45L112.28 180.64L112.66 180.94L111.99 183.56L111.6 183.36L111.11 183.17L110.63 183.07L110.15 182.98L109.75 183.07L109.37 183.17L108.97 183.36L108.69 183.66L108.5 183.95L108.4 184.43L108.3 184.92L108.2 185.6L108.2 191.52L105.48 191.52Z" />
		<path id="Path 41" fill-rule="evenodd" class="shp0" d="M111.21 180.35L111.8 180.44L112.29 180.63L112.67 180.93L112.68 180.93L112 183.59L111.98 183.58L111.59 183.38L111.11 183.19L110.63 183.1L110.15 183L109.75 183.1L109.37 183.19L108.98 183.38L108.71 183.67L108.5 183.95L108.42 184.44L108.31 184.92L108.22 185.6L108.22 191.54L105.47 191.54L105.47 180.53L108.22 180.53L108.22 181.48L108.77 180.93L109.36 180.53L109.94 180.35L110.63 180.24L111.21 180.35ZM108.21 180.55L105.49 180.55L105.49 191.52L108.21 191.52L108.21 185.6L108.29 184.92L108.39 184.43L108.5 183.94L108.68 183.66L108.97 183.36L109.37 183.17L109.75 183.07L110.15 182.98L110.63 183.07L111.11 183.17L111.61 183.36L111.99 183.56L112.66 180.94L112.28 180.64L111.79 180.45L111.21 180.36L110.63 180.26L109.94 180.36L109.37 180.55L108.78 180.94L108.21 181.52L108.21 180.55Z" />
		<path id="Path 42" fill-rule="evenodd" class="shp0" d="M111.21 180.36L111.8 180.45L112.28 180.65L112.66 180.94L111.99 183.56L111.59 183.36L111.11 183.17L110.63 183.08L110.14 182.98L109.75 183.08L109.37 183.17L108.97 183.36L108.68 183.66L108.49 183.94L108.4 184.43L108.3 184.92L108.2 185.6L108.2 191.52L105.48 191.52L105.48 180.55L108.2 180.55L108.2 181.52L108.78 180.94L109.37 180.55L109.94 180.36L110.63 180.26L111.21 180.36ZM108.19 180.57L105.5 180.57L105.5 191.5L108.19 191.5L108.19 185.59L108.28 184.92L108.38 184.43L108.47 183.94L108.68 183.65L108.97 183.35L109.36 183.15L109.75 183.06L110.14 182.96L110.64 183.06L111.11 183.15L111.61 183.35L111.98 183.53L112.65 180.95L112.27 180.67L111.79 180.47L111.2 180.38L110.63 180.28L109.95 180.38L109.37 180.57L108.79 180.95L108.19 181.56L108.19 180.57ZM87.91 191.52L86.64 186.95L86.06 184.52L85.48 187.05L84.21 191.52L81.89 191.52L81.89 191.42L78.78 180.55L81.6 180.55L82.57 184.63L83.15 187.35L83.44 185.89L83.83 184.52L84.99 180.55L87.23 180.55L88.39 184.52L89.07 187.35L89.65 184.52L90.63 180.55L93.35 180.55L90.24 191.52L87.91 191.52Z" />
		<path id="Path 43" fill-rule="evenodd" class="shp0" d="M90.24 191.54L87.89 191.54L86.62 186.95L86.07 184.61L85.49 187.06L84.23 191.54L81.87 191.54L81.87 191.42L78.75 180.54L81.61 180.54L82.58 184.62L83.15 187.25L83.42 185.88L83.81 184.52L84.98 180.54L87.24 180.54L88.41 184.52L89.07 187.26L89.64 184.52L90.61 180.54L93.37 180.54L90.24 191.54ZM88.39 184.53L87.23 180.55L84.99 180.55L83.83 184.53L83.43 185.89L83.15 187.35L82.56 184.63L81.59 180.55L78.78 180.55L81.89 191.42L81.89 191.52L84.22 191.52L85.48 187.05L86.06 184.53L86.64 186.95L87.91 191.52L90.24 191.52L93.35 180.55L90.63 180.55L89.66 184.53L89.07 187.35L88.39 184.53Z" />
		<path id="Path 44" fill-rule="evenodd" class="shp0" d="M90.23 191.52L87.9 191.52L86.64 186.95L86.05 184.53L85.48 187.05L84.21 191.52L81.89 191.52L81.89 191.42L78.77 180.55L81.59 180.55L82.57 184.63L83.14 187.34L83.44 185.89L83.83 184.53L84.99 180.55L87.23 180.55L88.39 184.53L89.07 187.34L89.66 184.53L90.63 180.55L93.35 180.55L90.23 191.52ZM89.07 187.42L88.37 184.54L87.21 180.57L85 180.57L83.84 184.54L83.46 185.89L83.14 187.44L82.55 184.63L81.58 180.57L78.8 180.57L81.91 191.42L81.91 191.5L84.2 191.5L85.46 187.05L86.05 184.45L86.66 186.95L87.92 191.5L90.22 191.5L93.32 180.57L90.64 180.57L89.67 184.54L89.07 187.42ZM97.81 191.61L96.83 191.32L95.97 190.84L95.29 190.16L94.7 189.29L94.22 188.31L93.92 187.24L93.83 185.99L93.92 184.83L94.22 183.75L94.7 182.78L95.29 181.91L95.97 181.23L96.83 180.74L97.81 180.36L98.88 180.26L99.85 180.36L100.82 180.74L101.7 181.23L102.38 181.91L103.06 182.78L103.44 183.75L103.73 184.83L103.83 185.99L103.73 187.24L103.44 188.31L103.06 189.29L102.38 190.16L101.7 190.84L100.82 191.32L99.85 191.61L98.88 191.71L97.81 191.61ZM97.91 183.08L97.51 183.37L97.23 183.65L96.94 184.14L96.75 184.72L96.65 185.31L96.65 186.67L96.75 187.34L96.94 187.83L97.23 188.31L97.51 188.7L97.91 189L98.39 189.09L98.88 189.19L99.37 189.09L99.75 189L100.14 188.7L100.44 188.31L100.72 187.83L100.92 187.34L101.01 186.67L101.01 185.31L100.92 184.72L100.72 184.14L100.44 183.65L100.14 183.37L99.75 183.08L99.37 182.88L98.39 182.88L97.91 183.08Z" />
		<path id="Path 45" fill-rule="evenodd" class="shp0" d="M99.86 180.34L100.83 180.73L101.7 181.21L102.38 181.9L103.07 182.78L103.46 183.75L103.75 184.81L103.85 185.98L103.75 187.25L103.46 188.32L103.07 189.29L102.38 190.17L101.7 190.86L100.83 191.34L99.86 191.64L98.88 191.73L97.8 191.64L96.83 191.34L95.96 190.86L95.28 190.17L94.69 189.29L94.2 188.32L93.91 187.25L93.82 185.98L93.91 184.81L94.2 183.75L94.69 182.78L95.28 181.9L95.96 181.21L96.83 180.73L97.8 180.34L98.88 180.24L99.86 180.34ZM97.81 180.36L96.83 180.74L95.97 181.23L95.29 181.91L94.7 182.79L94.22 183.76L93.92 184.82L93.83 185.98L93.92 187.25L94.22 188.31L94.7 189.28L95.29 190.16L95.97 190.84L96.83 191.33L97.81 191.61L98.88 191.71L99.85 191.61L100.82 191.33L101.69 190.84L102.38 190.16L103.06 189.28L103.44 188.31L103.74 187.25L103.83 185.98L103.74 184.82L103.44 183.76L103.06 182.79L102.38 181.91L101.69 181.23L100.82 180.74L99.85 180.36L98.88 180.26L97.81 180.36ZM99.37 182.88L99.75 183.07L100.14 183.36L100.44 183.66L100.72 184.14L100.92 184.72L101.01 185.3L101.01 186.67L100.92 187.34L100.72 187.83L100.44 188.31L100.14 188.7L99.75 189L99.37 189.09L98.88 189.18L98.39 189.09L97.91 189L97.51 188.7L97.23 188.31L96.94 187.83L96.75 187.34L96.65 186.67L96.65 185.3L96.75 184.72L96.94 184.14L97.23 183.66L97.51 183.36L97.91 183.07L98.39 182.88L99.37 182.88ZM99.36 189.07L99.74 188.98L100.13 188.69L100.42 188.31L100.7 187.82L100.89 187.34L101 186.67L101 185.3L100.89 184.73L100.7 184.15L100.42 183.67L100.13 183.38L99.74 183.09L99.36 182.9L98.4 182.9L97.92 183.09L97.53 183.38L97.24 183.67L96.95 184.15L96.76 184.73L96.66 185.3L96.66 186.67L96.76 187.34L96.95 187.82L97.24 188.31L97.53 188.69L97.91 188.98L98.4 189.07L98.88 189.17L99.36 189.07Z" />
		<path id="Path 46" fill-rule="evenodd" class="shp0" d="M98.88 180.26L99.85 180.35L100.82 180.75L101.69 181.23L102.38 181.91L103.06 182.78L103.44 183.75L103.74 184.82L103.83 185.98L103.74 187.24L103.44 188.31L103.06 189.29L102.38 190.16L101.69 190.84L100.82 191.33L99.85 191.61L98.88 191.71L97.81 191.61L96.83 191.33L95.97 190.84L95.29 190.16L94.7 189.29L94.22 188.31L93.92 187.24L93.83 185.98L93.92 184.82L94.22 183.75L94.7 182.78L95.29 181.91L95.97 181.23L96.83 180.75L97.81 180.35L98.88 180.26ZM99.85 191.59L100.81 191.3L101.68 190.83L102.37 190.14L103.04 189.28L103.42 188.31L103.72 187.24L103.81 185.98L103.72 184.82L103.42 183.76L103.04 182.79L102.37 181.92L101.68 181.24L100.81 180.76L99.85 180.38L98.88 180.28L97.81 180.38L96.84 180.76L95.98 181.24L95.3 181.92L94.72 182.79L94.23 183.76L93.94 184.82L93.85 185.98L93.94 187.24L94.23 188.31L94.72 189.28L95.3 190.15L95.98 190.83L96.84 191.3L97.81 191.59L98.88 191.69L99.85 191.59ZM99.37 182.86L99.76 183.06L100.16 183.35L100.45 183.64L100.45 183.65L100.74 184.14L100.94 184.72L100.94 184.73L101.03 185.3L101.03 186.67L100.94 187.35L100.74 187.83L100.74 187.84L100.45 188.33L100.16 188.72L100.15 188.72L99.75 189.01L99.37 189.11L98.88 189.2L98.87 189.2L98.39 189.11L97.9 189.01L97.5 188.72L97.5 188.71L97.22 188.33L96.92 187.83L96.73 187.35L96.73 187.34L96.63 186.67L96.63 185.3L96.73 184.72L96.92 184.14L96.92 184.13L97.22 183.64L97.5 183.35L97.9 183.06L98.39 182.86L99.37 182.86ZM99.37 189.09L99.75 188.99L100.14 188.7L100.44 188.31L100.72 187.83L100.92 187.34L101.01 186.66L101.01 185.3L100.92 184.73L100.72 184.14L100.44 183.65L100.14 183.36L99.75 183.07L99.37 182.88L98.39 182.88L97.91 183.07L97.51 183.36L97.23 183.65L96.94 184.14L96.75 184.73L96.65 185.3L96.65 186.66L96.75 187.34L96.94 187.83L97.23 188.31L97.51 188.7L97.91 188.99L98.39 189.09L98.88 189.19L99.37 189.09ZM41.58 191.52L39.26 186.37L37.9 188.21L37.9 191.52L35.18 191.52L35.18 177.35L37.9 175.99L37.9 184.73L38.87 183.36L41.01 180.55L44.21 180.55L41.3 184.14L44.6 191.52L41.58 191.52Z" />
		<path id="Path 47" fill-rule="evenodd" class="shp0" d="M37.91 184.67L38.85 183.35L41 180.53L44.25 180.53L41.32 184.15L44.62 191.54L41.57 191.54L39.26 186.41L37.91 188.22L37.91 191.54L35.17 191.54L35.17 177.33L37.91 175.96L37.91 184.67ZM37.89 191.52L37.89 188.21L39.26 186.37L41.58 191.52L44.6 191.52L41.3 184.14L44.21 180.55L41 180.55L38.87 183.36L37.89 184.73L37.89 175.99L35.18 177.35L35.18 191.52L37.89 191.52Z" />
		<path id="Path 48" fill-rule="evenodd" class="shp0" d="M37.9 184.73L38.87 183.36L41.01 180.55L44.21 180.55L41.3 184.14L44.59 191.52L41.58 191.52L39.26 186.37L37.9 188.22L37.9 191.52L35.18 191.52L35.18 177.35L37.9 175.99L37.9 184.73ZM37.88 191.5L37.88 188.21L39.26 186.34L41.59 191.5L44.57 191.5L41.27 184.14L44.17 180.57L41.02 180.57L38.89 183.37L37.88 184.78L37.88 176.02L35.2 177.36L35.2 191.5L37.88 191.5ZM46.25 180.54L48.97 180.54L48.97 191.52L46.25 191.52L46.25 180.54Z" />
		<path id="Path 49" fill-rule="evenodd" class="shp0" d="M48.98 180.53L48.98 191.54L46.23 191.54L46.23 180.53L48.98 180.53ZM46.25 191.52L48.97 191.52L48.97 180.55L46.25 180.55L46.25 191.52Z" />
		<path id="Path 50" fill-rule="evenodd" class="shp0" d="M46.25 180.54L48.97 180.54L48.97 191.52L46.25 191.52L46.25 180.54ZM46.26 191.49L48.95 191.49L48.95 180.56L46.26 180.56L46.26 191.49ZM46.25 176.28L48.97 176.28L48.97 178.99L46.25 178.99L46.25 176.28ZM46.25 191.52L46.26 191.52L46.25 191.52Z" />
		<path id="Path 51" fill-rule="evenodd" class="shp0" d="M48.99 176.26L48.99 179.01L46.23 179.01L46.23 176.26L48.99 176.26ZM46.25 179L48.97 179L48.97 176.28L46.25 176.28L46.25 179ZM48.97 176.28L48.95 176.28L48.97 176.28Z" />
		<path id="Path 52" fill-rule="evenodd" class="shp0" d="M46.25 176.28L48.97 176.28L48.97 178.99L46.25 178.99L46.25 176.28ZM46.26 178.98L48.95 178.98L48.95 176.3L46.26 176.3L46.26 178.98ZM116.74 175.99L116.74 191.52L114.02 191.52L114.02 177.35L116.74 175.99Z" />
		<path id="Path 53" fill-rule="evenodd" class="shp0" d="M116.76 175.96L116.76 191.54L114 191.54L114 177.33L116.76 175.96ZM114.02 191.52L116.74 191.52L116.74 175.99L114.02 177.35L114.02 191.52Z" />
		<path id="Path 54" fill-rule="evenodd" class="shp0" d="M116.74 175.99L116.74 191.52L114.02 191.52L114.02 177.35L116.74 175.99ZM114.05 191.5L116.72 191.5L116.72 176.02L114.05 177.36L114.05 191.5ZM171.02 -0.45L171.02 31.77L0.13 61.93L0.13 61.91L171.01 -0.45L171.02 -0.45ZM114.02 191.52L114.05 191.52L114.02 191.52Z" />
		<path id="Path 55" fill-rule="evenodd" class="shp0" d="M171.04 31.79L0.03 61.97L0.02 61.93L171.04 -0.48L171.04 31.79ZM0.13 61.93L171.02 31.77L171.02 -0.45L171.01 -0.45L0.13 61.91L0.13 61.93Z" />
		<path id="Path 56" fill-rule="evenodd" class="shp0" d="M171.02 -0.45L171.02 31.77L0.13 61.94L0.13 61.91L171.01 -0.45L171.02 -0.45ZM0.22 61.9L171.01 31.75L171.01 -0.42L0.22 61.9ZM36.15 80.49L44.3 94.66L19.54 94.66L19.54 104.85L41.98 104.85L41.98 117.85L19.54 117.85L19.54 128.04L50.52 128.04L50.52 142.21L1.1 142.21L1.1 80.49L36.15 80.49Z" />
		<path id="Path 57" fill-rule="evenodd" class="shp0" d="M36.16 80.47L44.33 94.68L19.56 94.68L19.56 104.83L42 104.83L42 117.87L19.56 117.87L19.56 128.02L50.54 128.02L50.54 142.23L1.08 142.23L1.08 80.47L36.16 80.47ZM1.1 142.21L50.52 142.21L50.52 128.04L19.54 128.04L19.54 117.85L41.98 117.85L41.98 104.85L19.54 104.85L19.54 94.66L44.3 94.66L36.15 80.49L1.1 80.49L1.1 142.21Z" />
		<path id="Path 58" fill-rule="evenodd" class="shp0" d="M36.15 80.49L44.3 94.66L19.54 94.66L19.54 104.85L41.98 104.85L41.98 117.85L19.54 117.85L19.54 128.04L50.53 128.04L50.53 142.21L1.1 142.21L1.1 80.49L36.15 80.49ZM1.11 142.2L50.5 142.2L50.5 128.06L19.53 128.06L19.53 117.83L41.96 117.83L41.96 104.87L19.53 104.87L19.53 94.64L44.27 94.64L36.14 80.5L1.11 80.5L1.11 142.2ZM63.53 142.21L63.53 117.85L41.98 80.49L62.47 80.49L72.86 100.67L83.35 80.49L103.63 80.49L81.98 117.85L81.98 142.21L63.53 142.21Z" />
		<path id="Path 59" fill-rule="evenodd" class="shp0" d="M82 117.86L82 142.23L63.52 142.23L63.52 117.86L41.95 80.47L62.48 80.47L72.86 100.64L83.33 80.48L83.34 80.47L103.66 80.47L82 117.86ZM62.47 80.49L41.98 80.49L63.53 117.85L63.53 142.22L81.98 142.22L81.98 117.85L103.63 80.49L83.35 80.49L72.86 100.68L62.47 80.49Z" />
		<path id="Path 60" fill-rule="evenodd" class="shp0" d="M81.98 117.85L81.98 142.22L63.53 142.22L63.53 117.85L41.97 80.49L62.47 80.49L72.85 100.67L83.34 80.49L103.64 80.49L81.98 117.85ZM72.85 100.71L62.45 80.5L42.01 80.5L63.55 117.85L63.55 142.2L81.96 142.2L81.96 117.85L103.61 80.5L83.35 80.5L72.85 100.71ZM67.03 180.24L67.71 180.34L68.39 180.53L68.98 180.83L69.44 181.27L69.44 180.53L72.2 180.53L72.2 190.45L72.09 191.72L71.9 192.88L71.52 193.86L71.22 194.25L70.93 194.54L70.54 194.92L70.54 194.93L70.15 195.22L69.17 195.61L68.11 195.9L66.83 196L65.83 193.83L65.96 193.83L67.12 193.72L67.99 193.54L68.57 193.15L69.05 192.77L69.25 192.38L69.44 191.9L69.44 190.69L68.98 191.14L68.3 191.44L67.71 191.73L67.03 191.73L66.06 191.63L65.17 191.34L64.49 190.86L63.81 190.17L63.33 189.39L63.02 188.32L62.84 187.16L62.74 185.89L62.84 184.62L63.02 183.55L63.42 182.57L63.91 181.81L64.49 181.12L65.27 180.62L66.06 180.34L67.03 180.24ZM67.23 189.17L68.19 189.17L68.67 188.88L69.15 188.5L69.44 188.12L69.44 183.86L69.15 183.47L68.77 183.19L68.19 182.89L67.51 182.8L67.23 182.8L66.85 182.89L66.46 183.08L66.16 183.37L65.89 183.76L65.68 184.25L65.59 185.02L65.49 185.79L65.59 186.75L65.68 187.54L65.89 188.12L66.16 188.6L66.55 188.88L66.85 189.08L67.23 189.17ZM56.93 180.24L57.81 180.34L58.68 180.62L59.36 181.02L59.96 181.51L60.34 182.29L60.64 183.17L60.83 184.14L60.93 185.3L60.93 191.53L58.17 191.53L58.17 184.82L58.08 184.25L57.88 183.77L57.69 183.47L57.4 183.18L57.11 182.99L56.73 182.8L55.77 182.8L55.29 182.99L54.99 183.18L54.72 183.47L54.42 183.86L54.33 184.24L54.24 184.82L54.13 185.41L54.13 191.53L51.38 191.53L51.38 180.53L54.13 180.53L54.13 181.38L54.68 180.93L55.37 180.53L55.38 180.53L56.06 180.34L56.93 180.24ZM69.46 183.85L69.44 183.85L69.46 183.85Z" />
		<path id="Path 61" fill-rule="evenodd" class="shp0" d="M67.04 180.24L67.72 180.34L68.39 180.53L68.98 180.82L69.44 181.28L69.44 180.53L72.19 180.53L72.19 190.45L72.09 191.71L71.9 192.88L71.51 193.86L71.22 194.25L70.93 194.55L70.54 194.93L70.14 195.21L69.17 195.61L68.29 195.86L66.75 195.86L65.84 193.83L65.97 193.83L67.13 193.72L67.99 193.54L68.56 193.15L69.05 192.77L69.25 192.39L69.44 191.9L69.44 190.69L68.98 191.14L68.3 191.44L67.72 191.73L67.04 191.73L66.05 191.64L65.18 191.34L64.49 190.86L63.81 190.17L63.32 189.4L63.02 188.31L62.84 187.15L62.74 185.89L62.84 184.62L63.02 183.55L63.43 182.58L63.91 181.81L64.49 181.12L65.27 180.63L66.05 180.34L67.04 180.24ZM67.22 189.17L68.19 189.17L68.67 188.87L69.15 188.5L69.44 188.12L69.44 183.86L69.15 183.48L68.77 183.18L68.19 182.89L67.52 182.8L67.22 182.8L66.84 182.89L66.46 183.09L66.17 183.37L65.89 183.76L65.68 184.25L65.59 185.02L65.5 185.79L65.59 186.75L65.68 187.54L65.89 188.12L66.17 188.6L66.55 188.87L66.84 189.08L67.22 189.17ZM56.93 180.24L57.81 180.34L58.68 180.63L59.36 181.02L59.95 181.5L60.35 182.29L60.63 183.16L60.84 184.14L60.93 185.3L60.93 191.54L58.17 191.54L58.17 184.83L58.08 184.25L57.88 183.76L57.69 183.48L57.4 183.18L57.12 183L56.73 182.8L55.77 182.8L55.29 183L55.01 183.18L54.71 183.48L54.42 183.85L54.33 184.24L54.23 184.83L54.13 185.41L54.13 191.54L51.37 191.54L51.37 180.53L54.13 180.53L54.13 181.38L54.68 180.93L55.37 180.53L56.05 180.34L56.93 180.24ZM69.46 183.84L69.44 183.84L69.46 183.84Z" />
	</g>
</svg>